<svg width="62" height="62" viewBox="0 0 62 62" fill="none" xmlns="http://www.w3.org/2000/svg">
<circle cx="30.8" cy="30.8" r="30.05" fill="url(#paint0_linear_7_22270)" stroke="url(#paint1_linear_7_22270)" stroke-width="1.5"/>
<path d="M40.936 21.8121H40.376L35.644 17.0801C35.266 16.7021 34.65 16.7021 34.258 17.0801C33.88 17.4581 33.88 18.0741 34.258 18.4661L37.604 21.8121H23.996L27.342 18.4661C27.72 18.0881 27.72 17.4721 27.342 17.0801C26.964 16.7021 26.348 16.7021 25.956 17.0801L21.238 21.8121H20.678C19.418 21.8121 16.8 21.8121 16.8 25.3961C16.8 26.7541 17.08 27.6501 17.668 28.2381C18.004 28.5881 18.41 28.7701 18.844 28.8681C19.25 28.9661 19.684 28.9801 20.104 28.9801H41.496C41.93 28.9801 42.336 28.9521 42.728 28.8681C43.904 28.5881 44.8 27.7481 44.8 25.3961C44.8 21.8121 42.182 21.8121 40.936 21.8121Z" fill="#768E91"/>
<path d="M40.67 30.8H20.818C19.95 30.8 19.292 31.57 19.432 32.424L20.608 39.62C21 42.028 22.05 44.8 26.712 44.8H34.566C39.284 44.8 40.124 42.434 40.628 39.788L42.042 32.466C42.21 31.598 41.552 30.8 40.67 30.8ZM28.854 39.83C28.854 40.376 28.42 40.81 27.888 40.81C27.342 40.81 26.908 40.376 26.908 39.83V35.21C26.908 34.678 27.342 34.23 27.888 34.23C28.42 34.23 28.854 34.678 28.854 35.21V39.83ZM34.846 39.83C34.846 40.376 34.412 40.81 33.866 40.81C33.334 40.81 32.886 40.376 32.886 39.83V35.21C32.886 34.678 33.334 34.23 33.866 34.23C34.412 34.23 34.846 34.678 34.846 35.21V39.83Z" fill="#768E91"/>
<defs>
<linearGradient id="paint0_linear_7_22270" x1="24.8989" y1="19.131" x2="5.27518" y2="3.4139" gradientUnits="userSpaceOnUse">
<stop stop-color="#FF8629"/>
<stop offset="1" stop-color="#FFD729"/>
</linearGradient>
<linearGradient id="paint1_linear_7_22270" x1="13.2049" y1="-0.497556" x2="19.035" y2="13.5857" gradientUnits="userSpaceOnUse">
<stop stop-color="white"/>
<stop offset="1" stop-color="white" stop-opacity="0"/>
</linearGradient>
</defs>
</svg>
