<svg width="281" height="34" viewBox="0 0 281 34" fill="none" xmlns="http://www.w3.org/2000/svg">
<g clip-path="url(#clip0_7_22447)">
<mask id="path-1-inside-1_7_22447" fill="white">
<path d="M47.3541 12.3683C47.8995 13.6085 48.1392 16.3684 47.8883 18.4601C47.0918 25.0272 42.3237 30.1826 35.7008 31.5197C32.013 32.2637 28.3904 31.9399 24.9645 30.3224C24.3645 30.0422 23.9282 30.1067 23.361 30.3654C15.2651 33.9886 4.19014 31.228 1.09144 20.9299C0.284078 18.2556 0.240156 14.9235 0.982062 12.7346V12.7453C1.13482 13.9099 1.20037 14.9669 1.41859 16.0021C2.35692 20.5418 4.52832 24.2514 9.00159 26.2248C12.7331 27.8854 16.4 27.3245 19.9352 25.5129C21.2225 24.8551 22.4554 24.0676 23.4264 23.0109C24.0482 22.3319 24.4085 22.4718 25.0084 23.0324C27.147 25.0273 29.6457 26.4299 32.5807 26.9367C37.4687 27.7885 41.3744 26.1487 44.2985 22.2775C46.5133 19.3553 47.2668 15.9698 47.3541 12.3683ZM25.0826 2.28533C30.7672 0.247274 36.2775 0.311849 41.2311 4.1076C48.1159 9.39145 46.1297 18.751 41.1325 22.6222C40.0851 23.4309 38.9182 24.0033 37.5436 24.2082C39.3002 22.6338 40.4346 20.7354 40.8493 18.4601C41.853 13.0362 38.8742 8.00066 33.7243 7.10565C30.5384 6.55573 27.7561 7.56892 25.3121 9.54217C24.2756 10.3833 24.3521 10.5773 23.0866 9.54217C20.6425 7.54724 17.8596 6.55569 14.6627 7.10565C10.6804 7.78511 7.75651 11.1173 7.37464 15.2472C7.04742 18.7948 7.95288 21.1241 10.9205 24.2512C9.94947 24.1541 9.15272 23.8085 8.41077 23.3664C5.00692 21.35 3.39239 18.2124 2.87952 14.4816C2.00666 8.03324 6.55598 2.78104 12.9606 1.36834C16.5066 0.581154 19.9877 0.926586 23.3483 2.29607C23.97 2.54397 24.4718 2.50089 25.0826 2.28533Z"/>
</mask>
<path d="M47.3541 12.3683C47.8995 13.6085 48.1392 16.3684 47.8883 18.4601C47.0918 25.0272 42.3237 30.1826 35.7008 31.5197C32.013 32.2637 28.3904 31.9399 24.9645 30.3224C24.3645 30.0422 23.9282 30.1067 23.361 30.3654C15.2651 33.9886 4.19014 31.228 1.09144 20.9299C0.284078 18.2556 0.240156 14.9235 0.982062 12.7346V12.7453C1.13482 13.9099 1.20037 14.9669 1.41859 16.0021C2.35692 20.5418 4.52832 24.2514 9.00159 26.2248C12.7331 27.8854 16.4 27.3245 19.9352 25.5129C21.2225 24.8551 22.4554 24.0676 23.4264 23.0109C24.0482 22.3319 24.4085 22.4718 25.0084 23.0324C27.147 25.0273 29.6457 26.4299 32.5807 26.9367C37.4687 27.7885 41.3744 26.1487 44.2985 22.2775C46.5133 19.3553 47.2668 15.9698 47.3541 12.3683ZM25.0826 2.28533C30.7672 0.247274 36.2775 0.311849 41.2311 4.1076C48.1159 9.39145 46.1297 18.751 41.1325 22.6222C40.0851 23.4309 38.9182 24.0033 37.5436 24.2082C39.3002 22.6338 40.4346 20.7354 40.8493 18.4601C41.853 13.0362 38.8742 8.00066 33.7243 7.10565C30.5384 6.55573 27.7561 7.56892 25.3121 9.54217C24.2756 10.3833 24.3521 10.5773 23.0866 9.54217C20.6425 7.54724 17.8596 6.55569 14.6627 7.10565C10.6804 7.78511 7.75651 11.1173 7.37464 15.2472C7.04742 18.7948 7.95288 21.1241 10.9205 24.2512C9.94947 24.1541 9.15272 23.8085 8.41077 23.3664C5.00692 21.35 3.39239 18.2124 2.87952 14.4816C2.00666 8.03324 6.55598 2.78104 12.9606 1.36834C16.5066 0.581154 19.9877 0.926586 23.3483 2.29607C23.97 2.54397 24.4718 2.50089 25.0826 2.28533Z" fill="white"/>
<path d="M47.3541 12.3683C47.8995 13.6085 48.1392 16.3684 47.8883 18.4601C47.0918 25.0272 42.3237 30.1826 35.7008 31.5197C32.013 32.2637 28.3904 31.9399 24.9645 30.3224C24.3645 30.0422 23.9282 30.1067 23.361 30.3654C15.2651 33.9886 4.19014 31.228 1.09144 20.9299C0.284078 18.2556 0.240156 14.9235 0.982062 12.7346V12.7453C1.13482 13.9099 1.20037 14.9669 1.41859 16.0021C2.35692 20.5418 4.52832 24.2514 9.00159 26.2248C12.7331 27.8854 16.4 27.3245 19.9352 25.5129C21.2225 24.8551 22.4554 24.0676 23.4264 23.0109C24.0482 22.3319 24.4085 22.4718 25.0084 23.0324C27.147 25.0273 29.6457 26.4299 32.5807 26.9367C37.4687 27.7885 41.3744 26.1487 44.2985 22.2775C46.5133 19.3553 47.2668 15.9698 47.3541 12.3683ZM25.0826 2.28533C30.7672 0.247274 36.2775 0.311849 41.2311 4.1076C48.1159 9.39145 46.1297 18.751 41.1325 22.6222C40.0851 23.4309 38.9182 24.0033 37.5436 24.2082C39.3002 22.6338 40.4346 20.7354 40.8493 18.4601C41.853 13.0362 38.8742 8.00066 33.7243 7.10565C30.5384 6.55573 27.7561 7.56892 25.3121 9.54217C24.2756 10.3833 24.3521 10.5773 23.0866 9.54217C20.6425 7.54724 17.8596 6.55569 14.6627 7.10565C10.6804 7.78511 7.75651 11.1173 7.37464 15.2472C7.04742 18.7948 7.95288 21.1241 10.9205 24.2512C9.94947 24.1541 9.15272 23.8085 8.41077 23.3664C5.00692 21.35 3.39239 18.2124 2.87952 14.4816C2.00666 8.03324 6.55598 2.78104 12.9606 1.36834C16.5066 0.581154 19.9877 0.926586 23.3483 2.29607C23.97 2.54397 24.4718 2.50089 25.0826 2.28533Z" fill="url(#paint0_linear_7_22447)"/>
<path d="M47.3541 12.3683L49.1849 11.5632L45.3547 12.3199L47.3541 12.3683ZM47.8883 18.4601L49.8738 18.7009L49.8741 18.6983L47.8883 18.4601ZM35.7008 31.5197L36.0963 33.4802L36.0966 33.4802L35.7008 31.5197ZM24.9645 30.3224L25.8184 28.5139L25.811 28.5104L24.9645 30.3224ZM23.361 30.3654L24.178 32.1909L24.1844 32.188L24.1909 32.1851L23.361 30.3654ZM1.09144 20.9299L3.00662 20.3536L3.00608 20.3518L1.09144 20.9299ZM0.982062 12.7346H2.98206L-0.912102 12.0926L0.982062 12.7346ZM0.982062 12.7453H-1.01794V12.8759L-1.00095 13.0054L0.982062 12.7453ZM1.41859 16.0021L3.3772 15.5973L3.37558 15.5896L1.41859 16.0021ZM9.00159 26.2248L9.81477 24.3975L9.80883 24.3949L9.00159 26.2248ZM19.9352 25.5129L19.0252 23.7319L19.0231 23.733L19.9352 25.5129ZM23.4264 23.0109L24.8991 24.3642L24.9015 24.3615L23.4264 23.0109ZM25.0084 23.0324L23.643 24.4938L23.6442 24.4949L25.0084 23.0324ZM32.5807 26.9367L32.924 24.9664L32.921 24.9659L32.5807 26.9367ZM44.2985 22.2775L42.7046 21.0694L42.7026 21.0721L44.2985 22.2775ZM25.0826 2.28533L25.7482 4.17136L25.7576 4.16799L25.0826 2.28533ZM41.2311 4.1076L42.4487 2.521L42.4475 2.52008L41.2311 4.1076ZM41.1325 22.6222L42.3547 24.2053L42.3573 24.2033L41.1325 22.6222ZM37.5436 24.2082L36.2088 22.7188L31.2427 27.1696L37.8385 26.1863L37.5436 24.2082ZM40.8493 18.4601L38.8826 18.0962L38.8817 18.1016L40.8493 18.4601ZM33.7243 7.10565L34.0667 5.13518L34.0644 5.13479L33.7243 7.10565ZM25.3121 9.54217L24.0557 7.98605L24.0519 7.98915L25.3121 9.54217ZM23.0866 9.54217L24.3528 7.99405L24.3512 7.99278L23.0866 9.54217ZM14.6627 7.10565L14.9991 9.07716L15.0018 9.07669L14.6627 7.10565ZM7.37464 15.2472L5.38314 15.0631L5.38309 15.0635L7.37464 15.2472ZM10.9205 24.2512L10.7216 26.2412L16.0741 26.7762L12.3712 22.8744L10.9205 24.2512ZM8.41077 23.3664L9.43458 21.6483L9.43012 21.6457L8.41077 23.3664ZM2.87952 14.4816L0.897594 14.7499L0.898158 14.754L2.87952 14.4816ZM12.9606 1.36834L13.3914 3.3214L13.394 3.32081L12.9606 1.36834ZM23.3483 2.29607L22.5935 4.14819L22.6005 4.15105L22.6076 4.15386L23.3483 2.29607ZM47.3541 12.3683L45.5233 13.1734C45.6626 13.4902 45.8365 14.2286 45.9274 15.2691C46.0142 16.2621 46.0089 17.3349 45.9025 18.222L47.8883 18.4601L49.8741 18.6983C50.0185 17.4937 50.0189 16.1406 49.9122 14.9207C49.8097 13.7483 49.591 12.4867 49.1849 11.5632L47.3541 12.3683ZM47.8883 18.4601L45.9029 18.2193C45.2115 23.9192 41.094 28.3905 35.305 29.5593L35.7008 31.5197L36.0966 33.4802C43.5535 31.9746 48.9721 26.1353 49.8738 18.7009L47.8883 18.4601ZM35.7008 31.5197L35.3053 29.5592C31.9958 30.2269 28.8166 29.9294 25.8183 28.5139L24.9645 30.3224L24.1106 32.131C27.9642 33.9504 32.0302 34.3005 36.0963 33.4802L35.7008 31.5197ZM24.9645 30.3224L25.811 28.5104C25.2737 28.2594 24.6881 28.1107 24.0452 28.1446C23.4334 28.1768 22.9206 28.3681 22.531 28.5457L23.361 30.3654L24.1909 32.1851C24.2764 32.1461 24.3172 32.1328 24.3281 32.1296C24.3349 32.1277 24.3072 32.1363 24.2557 32.139C24.2307 32.1403 24.2045 32.14 24.1783 32.1379C24.1522 32.1357 24.1302 32.1321 24.1135 32.1284C24.0798 32.121 24.0788 32.1162 24.118 32.1345L24.9645 30.3224ZM23.361 30.3654L22.544 28.5399C15.2512 31.8037 5.66993 29.2048 3.00662 20.3536L1.09144 20.9299L-0.82374 21.5061C2.71035 33.2512 15.2789 36.1736 24.178 32.1909L23.361 30.3654ZM1.09144 20.9299L3.00608 20.3518C2.29366 17.9921 2.29383 15.0949 2.87623 13.3765L0.982062 12.7346L-0.912102 12.0926C-1.81352 14.7522 -1.72551 18.5192 -0.823209 21.5079L1.09144 20.9299ZM0.982062 12.7346H-1.01794V12.7453H0.982062H2.98206V12.7346H0.982062ZM0.982062 12.7453L-1.00095 13.0054C-0.872658 13.9835 -0.776397 15.2857 -0.538407 16.4147L1.41859 16.0021L3.37558 15.5896C3.17713 14.6482 3.14229 13.8363 2.96508 12.4852L0.982062 12.7453ZM1.41859 16.0021L-0.540013 16.407C0.484691 21.3645 2.95353 25.7427 8.19436 28.0546L9.00159 26.2248L9.80883 24.3949C6.10312 22.7602 4.22914 19.7191 3.37718 15.5973L1.41859 16.0021ZM9.00159 26.2248L8.18843 28.052C12.6233 30.0257 16.9401 29.2951 20.8473 27.2928L19.9352 25.5129L19.0231 23.733C15.86 25.3539 12.843 25.7452 9.81476 24.3976L9.00159 26.2248ZM19.9352 25.5129L20.8452 27.2939C22.2316 26.5855 23.6998 25.6693 24.8991 24.3642L23.4264 23.0109L21.9537 21.6577C21.211 22.4659 20.2135 23.1248 19.0252 23.7319L19.9352 25.5129ZM23.4264 23.0109L24.9015 24.3615C24.9831 24.2724 24.9586 24.3208 24.8336 24.3912C24.6752 24.4806 24.4009 24.5783 24.0599 24.5499C23.7509 24.5242 23.5591 24.4081 23.522 24.3845C23.4926 24.3658 23.5208 24.3796 23.643 24.4938L25.0084 23.0324L26.3739 21.571C26.1183 21.3322 25.4109 20.6484 24.3912 20.5637C23.1774 20.4628 22.3602 21.2138 21.9513 21.6603L23.4264 23.0109ZM25.0084 23.0324L23.6442 24.4949C26.0162 26.7076 28.8583 28.3235 32.2404 28.9075L32.5807 26.9367L32.921 24.9659C30.433 24.5362 28.2778 23.3471 26.3727 21.5699L25.0084 23.0324ZM32.5807 26.9367L32.2373 28.907C34.9932 29.3872 37.5763 29.1796 39.9239 28.2331C42.2685 27.2878 44.2528 25.6563 45.8944 23.483L44.2985 22.2775L42.7026 21.0721C41.4201 22.7699 39.9895 23.8938 38.4282 24.5233C36.8699 25.1516 35.0562 25.3379 32.924 24.9664L32.5807 26.9367ZM44.2985 22.2775L45.8924 23.4856C48.4491 20.1124 49.2603 16.263 49.3535 12.4168L47.3541 12.3683L45.3547 12.3199C45.2733 15.6767 44.5775 18.5983 42.7046 21.0694L44.2985 22.2775ZM25.0826 2.28533L25.7576 4.16799C31.0086 2.2854 35.7538 2.4302 40.0146 5.69512L41.2311 4.1076L42.4475 2.52008C36.8012 -1.8065 30.5259 -1.79086 24.4077 0.402674L25.0826 2.28533ZM41.2311 4.1076L40.0134 5.6942C42.8638 7.88181 43.859 10.8589 43.6431 13.7455C43.4216 16.7068 41.9264 19.4772 39.9076 21.0412L41.1325 22.6222L42.3573 24.2033C45.3357 21.896 47.3322 18.051 47.6319 14.0438C47.9373 9.96187 46.4831 5.61724 42.4487 2.521L41.2311 4.1076ZM41.1325 22.6222L39.9102 21.0392C39.0801 21.6801 38.2249 22.0845 37.2487 22.23L37.5436 24.2082L37.8385 26.1863C39.6115 25.922 41.0901 25.1817 42.3547 24.2053L41.1325 22.6222ZM37.5436 24.2082L38.8784 25.6976C40.9314 23.8576 42.3148 21.5738 42.8168 18.8187L40.8493 18.4601L38.8817 18.1016C38.5545 19.897 37.669 21.4101 36.2088 22.7188L37.5436 24.2082ZM40.8493 18.4601L42.8159 18.8241C43.9829 12.5178 40.5146 6.25577 34.0667 5.13518L33.7243 7.10565L33.3818 9.07611C37.2337 9.74554 39.7231 13.5545 38.8826 18.0962L40.8493 18.4601ZM33.7243 7.10565L34.0644 5.13479C30.1887 4.46581 26.8405 5.73769 24.0558 7.98606L25.3121 9.54217L26.5685 11.0983C28.6718 9.40015 30.888 8.64566 33.3841 9.0765L33.7243 7.10565ZM25.3121 9.54217L24.0519 7.98915C23.9053 8.10815 23.777 8.21681 23.6832 8.29571C23.5791 8.38334 23.5288 8.42448 23.4953 8.44995C23.4819 8.46011 23.4836 8.45825 23.4967 8.44967C23.5099 8.44102 23.5421 8.42071 23.5906 8.39645C23.6929 8.34519 23.8704 8.27507 24.1054 8.25385C24.2196 8.24354 24.3302 8.24643 24.4337 8.25954C24.5359 8.27247 24.6216 8.29411 24.6882 8.31559C24.8131 8.35594 24.8787 8.39871 24.8651 8.3904C24.8534 8.3833 24.809 8.35443 24.7142 8.28228C24.6216 8.21184 24.5061 8.11942 24.3528 7.99405L23.0866 9.54217L21.8203 11.0903C22.1213 11.3365 22.457 11.6067 22.7798 11.8039C23.109 12.005 23.7002 12.3067 24.4651 12.2376C25.1912 12.1721 25.7002 11.7983 25.9149 11.6352C26.0864 11.5049 26.4403 11.2023 26.5723 11.0952L25.3121 9.54217ZM23.0866 9.54217L24.3512 7.99278C21.553 5.70872 18.2007 4.46764 14.3237 5.1346L14.6627 7.10565L15.0018 9.07669C17.5185 8.64375 19.7321 9.38577 21.8219 11.0916L23.0866 9.54217ZM14.6627 7.10565L14.3263 5.13414C9.38671 5.97693 5.84221 10.0982 5.38314 15.0631L7.37464 15.2472L9.36615 15.4314C9.67082 12.1364 11.9741 9.59329 14.9991 9.07716L14.6627 7.10565ZM7.37464 15.2472L5.38309 15.0635C5.19893 17.0602 5.35144 18.8583 6.05045 20.638C6.73799 22.3885 7.89515 23.9686 9.46983 25.6279L10.9205 24.2512L12.3712 22.8744C10.9783 21.4066 10.1989 20.2585 9.77357 19.1757C9.35974 18.1221 9.22313 16.9818 9.36619 15.4309L7.37464 15.2472ZM10.9205 24.2512L11.1194 22.2611C10.5338 22.2025 10.0208 21.9976 9.43457 21.6483L8.41077 23.3664L7.38698 25.0845C8.28462 25.6194 9.36517 26.1057 10.7216 26.2412L10.9205 24.2512ZM8.41077 23.3664L9.43012 21.6457C6.67181 20.0116 5.3119 17.4901 4.86089 14.2092L2.87952 14.4816L0.898158 14.754C1.47287 18.9346 3.34204 22.6883 7.39142 25.0871L8.41077 23.3664ZM2.87952 14.4816L4.86145 14.2133C4.15778 9.01493 7.77211 4.56086 13.3914 3.32139L12.9606 1.36834L12.5298 -0.584712C5.33985 1.00121 -0.144464 7.05154 0.897598 14.7499L2.87952 14.4816ZM12.9606 1.36834L13.394 3.32081C16.5234 2.62612 19.5905 2.92442 22.5935 4.14819L23.3483 2.29607L24.103 0.443962C20.3849 -1.07125 16.4899 -1.46382 12.5272 -0.58413L12.9606 1.36834ZM23.3483 2.29607L22.6076 4.15386C23.789 4.62492 24.8061 4.5038 25.7482 4.17134L25.0826 2.28533L24.4171 0.399329C24.3243 0.432077 24.2629 0.448546 24.2235 0.45695C24.2044 0.461027 24.1914 0.463014 24.1835 0.463996C24.1757 0.464961 24.172 0.465064 24.1714 0.465077C24.171 0.465088 24.1718 0.465066 24.1729 0.465164C24.1741 0.465261 24.1734 0.465288 24.1702 0.464664C24.1644 0.463573 24.1391 0.458276 24.089 0.438295L23.3483 2.29607Z" fill="url(#paint1_linear_7_22447)" mask="url(#path-1-inside-1_7_22447)"/>
<path d="M79.7045 10.114C81.3302 8.97101 82.9341 8.41027 84.789 8.50732C87.7131 8.66907 90.0589 10.7503 90.3972 13.6402C90.8118 17.1987 90.4954 20.7788 90.5827 24.3373C90.6045 25.0059 90.5827 25.6637 91.0846 26.3646C89.557 26.246 88.1604 26.1813 86.7747 26.2568C86.2619 26.2891 86.4583 25.7931 86.4583 25.5235C86.4474 22.7414 86.4583 19.9593 86.4474 17.1772C86.4474 16.2606 86.4256 15.344 86.131 14.4597C85.5309 12.6481 83.7633 11.861 81.9739 12.5727C80.5228 13.155 79.7154 14.3196 79.7154 15.8292C79.7154 19.0858 79.7154 22.3424 79.7699 25.599C79.7699 26.1274 79.6063 26.2352 79.1262 26.2244C78.2315 26.1921 77.315 26.1597 76.4203 26.2244C75.6674 26.2783 75.5256 25.998 75.5365 25.3186C75.5583 19.1182 75.5474 12.9285 75.5583 6.72806C75.5583 5.46641 75.5801 4.19397 75.5474 2.93231C75.5365 2.43628 75.7002 2.22061 76.2021 2.28531C76.2348 2.28531 76.2675 2.28531 76.3003 2.28531C77.3914 2.30688 78.8098 1.91868 79.4862 2.44706C80.1955 3.0078 79.6826 4.46355 79.7154 5.52033C79.7481 6.97608 79.7154 8.42106 79.7154 10.0817L79.7045 10.114Z" fill="white"/>
<path d="M71.1055 9.50999C68.4323 7.61212 65.5737 7.37489 62.6605 8.07581C60.1182 8.69046 58.7871 10.5668 58.3943 13.0254C58.1106 14.7723 58.1652 16.5408 58.7216 18.2661C59.5508 20.7786 61.7221 22.3638 64.428 22.3961C65.3555 22.3961 66.2829 22.4393 67.2103 22.256C68.8033 21.954 70.1999 21.3394 71.4656 20.013C71.4656 21.5982 71.4765 23.0216 71.4656 24.4558C71.4656 24.7793 71.1055 24.8655 70.8764 25.0273C69.0652 26.235 67.003 26.6232 64.8645 26.6556C60.4237 26.7418 56.834 25.2106 54.8592 21.1237C52.9934 17.2525 53.0588 13.2518 54.8264 9.34824C55.9612 6.83572 57.9906 5.17508 60.6747 4.36632C63.8716 3.39582 67.0794 3.2772 70.2981 4.33397C70.8982 4.52807 71.171 4.77609 71.1383 5.44466C71.0728 6.76023 71.1164 8.08659 71.1164 9.50999H71.1055Z" fill="white"/>
<path d="M110.089 17.8029C110.209 19.2802 109.947 20.7683 110.264 22.2456C110.362 22.7201 110.525 23.2053 110.918 23.4749C111.595 23.9386 111.278 24.219 110.842 24.5748C110.296 25.0169 109.718 25.4483 109.282 25.9874C108.627 26.7962 108.005 26.656 107.536 25.9443C107.056 25.2218 106.608 25.3512 105.976 25.6532C103.401 26.904 100.76 26.7315 98.1415 25.8041C96.1448 25.0924 95.0537 23.5935 94.8573 21.5339C94.6718 19.5821 95.5883 18.1264 97.1922 17.0588C99.5926 15.4629 102.32 15.1825 105.103 15.3011C105.91 15.3335 106.139 15.2688 105.888 14.4169C105.397 12.7778 104.459 12.0338 102.484 11.9691C100.553 11.9044 98.7307 12.3573 97.0613 13.2954C96.5921 13.5542 96.4503 13.4895 96.3848 13.0043C96.2757 12.1308 96.1557 11.2573 96.0248 10.3839C95.9702 10.0712 96.1011 9.94178 96.3739 9.81237C99.6144 8.34583 102.964 7.92528 106.357 9.11145C108.791 9.96334 109.893 11.9151 110.078 14.363C110.165 15.4952 110.089 16.6383 110.089 17.7705V17.8029ZM106.019 20.3154C106.019 19.9703 105.976 19.6145 106.019 19.2802C106.172 18.3636 105.735 18.1371 104.906 18.2234C104.404 18.2773 103.881 18.2126 103.368 18.245C102.309 18.3205 101.273 18.493 100.356 19.0645C99.4835 19.6037 99.1016 20.3801 99.2544 21.3937C99.4071 22.3642 100.149 22.7416 100.989 22.925C102.091 23.1622 103.215 23.1838 104.317 22.925C105.997 22.526 106.008 22.5044 106.008 20.8114C106.008 20.6497 106.008 20.4987 106.008 20.337L106.019 20.3154Z" fill="white"/>
<path d="M128.093 10.1685C128.595 10.0822 128.868 9.73715 129.217 9.54305C131.388 8.31375 133.669 8.02259 135.905 9.19798C138.164 10.3842 138.982 12.5085 139.037 14.9024C139.102 18.0619 139.059 21.2215 139.059 24.381C139.059 25.0496 139.146 25.6966 139.571 26.3975C138.098 26.2357 136.702 26.2142 135.316 26.2681C134.782 26.2896 135.011 25.8044 135 25.5456C134.978 22.7958 134.989 20.0461 135 17.2963C135 16.3474 134.902 15.4092 134.618 14.5034C134.051 12.6163 132.545 11.8615 130.646 12.4977C128.933 13.0692 128.049 14.2446 128.071 15.9915C128.126 19.2804 127.919 22.5694 128.191 25.8475C128.235 26.3651 127.919 26.2465 127.657 26.2465C126.664 26.2573 125.66 26.2249 124.667 26.2681C124.089 26.2896 123.98 26.074 123.991 25.5672C124.012 22.9791 123.991 20.3803 123.991 17.7923C123.991 15.0426 124.002 12.2928 123.98 9.54305C123.98 8.96075 124.122 8.75586 124.733 8.799C125.376 8.85291 126.02 8.80978 126.664 8.80978C127.58 8.80978 128.057 9.27347 128.093 10.2008V10.1685Z" fill="white"/>
<path d="M114.913 17.4691C114.913 14.8164 114.924 12.1637 114.902 9.51098C114.902 8.93946 115.033 8.72379 115.644 8.75614C116.506 8.81006 117.379 8.82084 118.241 8.75614C118.972 8.70222 119.157 8.95024 119.146 9.65116C119.114 14.3204 119.146 19.0004 119.114 23.6696C119.114 24.5107 119.539 25.6213 118.95 26.1066C118.448 26.5164 117.346 26.2144 116.517 26.2252C115.44 26.2252 114.902 25.704 114.902 24.6616C114.902 22.2569 114.902 19.863 114.902 17.4583L114.913 17.4691Z" fill="white"/>
<path d="M21.8865 21.8463C20.2172 21.6629 18.5805 21.8786 17.0203 21.4796C14.5217 20.8434 12.9287 18.4819 13.2669 16.034C13.627 13.4568 15.711 11.6021 18.3187 11.6128C20.0208 11.6128 21.7229 11.6775 23.425 11.7962C26.2618 12.001 28.3895 14.7724 27.9748 17.5545C27.833 18.5142 27.2547 18.4172 26.6001 18.3417C25.9672 18.2662 25.6835 18.0721 25.8363 17.3065C26.1964 15.4517 24.8761 13.942 22.9558 13.845C21.4828 13.7695 19.999 13.7048 18.526 13.6832C16.7039 13.6509 15.3291 14.9341 15.3073 16.6271C15.2854 18.2446 16.6057 19.7004 18.3841 19.571C20.2063 19.4416 21.1119 20.3258 21.8865 21.8571V21.8463Z" fill="white"/>
<path d="M27.7348 11.937C29.1859 11.9801 30.6371 11.8939 32.0664 12.1311C34.5977 12.5409 36.4198 14.7838 36.3217 17.3179C36.2235 19.7873 34.2049 21.9224 31.6845 22.0518C29.666 22.1597 27.6256 22.1597 25.6289 21.8362C22.8903 21.394 21.0682 18.6443 21.6028 15.9916C21.821 14.9132 22.5848 15.4416 23.1194 15.42C23.6759 15.4093 23.8068 15.7651 23.6977 16.3366C23.3486 18.2022 24.5488 19.7442 26.4691 19.8951C28.0075 20.0138 29.546 20.0569 31.0953 20.0569C32.8192 20.0569 34.1395 18.806 34.2049 17.2101C34.2704 15.571 33.092 14.2878 31.3572 14.0937C31.3244 14.0937 31.2917 14.0829 31.259 14.0937C29.4914 14.3956 28.3567 13.6408 27.7348 11.9478V11.937Z" fill="white"/>
<path d="M280.79 22.3747C280.867 23.0864 280.736 23.8304 280.496 24.5422C279.928 26.2567 278.379 27.2272 276.469 27.1086C274.374 26.9792 273.054 25.8793 272.661 24.0138C272.378 22.6551 272.378 21.3179 272.858 20.0131C273.523 18.1692 274.887 17.479 277.44 17.6516C279.132 17.7702 280.223 18.7838 280.616 20.5307C280.746 21.1238 280.801 21.7061 280.779 22.3639L280.79 22.3747ZM279.23 22.2453C279.317 21.6522 279.186 21.0376 279.033 20.4229C278.761 19.3122 278.03 18.7191 276.851 18.6436C275.684 18.5682 274.789 19.1181 274.396 20.2072C273.905 21.5875 273.905 22.9786 274.364 24.3588C274.767 25.5774 275.498 26.0518 276.819 25.9979C277.997 25.9548 278.739 25.3401 279.033 24.1539C279.186 23.5393 279.295 22.9246 279.219 22.2345L279.23 22.2453Z" fill="white"/>
<path d="M118.459 6.42659C117.313 5.61784 116.178 4.80909 115.022 4.0219C114.672 3.78466 114.771 3.59056 114.956 3.34255C115.633 2.39361 116.32 1.44467 117.106 0.560433C117.389 0.236932 117.586 0.161448 117.957 0.463383C118.84 1.18587 119.757 1.88679 120.674 2.56614C121.023 2.82494 121.077 2.99748 120.783 3.36411C119.986 4.3454 119.255 5.3806 118.47 6.42659H118.459Z" fill="white"/>
<path d="M176.067 21.3506C176.274 22.6338 175.936 23.7553 175.936 24.8768C175.936 25.1787 175.783 25.3297 175.521 25.4375C171.408 27.2168 164.501 27.2276 161.348 22.1162C158.086 16.8216 161.348 8.85268 168.833 8.50761C171.954 8.35665 174.518 9.2301 176.307 11.8612C177.431 13.5219 177.747 15.3982 177.638 17.3608C177.605 17.997 177.409 18.3852 176.58 18.493C173.852 18.8273 171.135 18.795 168.397 18.795C167.306 18.795 166.214 18.8165 165.112 18.795C164.567 18.7842 164.447 18.892 164.676 19.442C165.603 21.6202 167.469 22.3966 169.64 22.5799C171.823 22.7632 173.994 22.5799 176.045 21.3614L176.067 21.3506ZM168.397 15.7109C169.782 15.7433 171.157 15.7325 172.532 15.6031C172.968 15.5599 173.176 15.4952 173.034 15.01C172.619 13.6082 171.888 12.5082 170.361 12.0877C167.938 11.4083 165.363 12.821 164.676 15.1825C164.512 15.7325 164.796 15.7109 165.123 15.7109C166.214 15.7109 167.306 15.7109 168.397 15.7109Z" fill="white"/>
<path d="M208.922 24.79C207.154 26.0733 205.387 26.731 203.314 26.4399C200.597 26.0517 198.807 24.2077 198.524 21.458C198.164 17.9318 198.458 14.3841 198.338 10.8579C198.338 10.5775 198.284 10.2756 198.338 10.006C198.436 9.58546 197.869 9.10021 198.306 8.80906C198.589 8.62574 199.113 8.77671 199.528 8.77671C200.171 8.77671 200.826 8.83063 201.459 8.75514C202.277 8.64731 202.561 8.85219 202.539 9.73643C202.495 12.9607 202.528 16.1741 202.593 19.3983C202.615 20.7031 202.943 21.9756 204.416 22.4177C205.943 22.8706 207.383 22.6549 208.627 21.5442C208.965 21.2423 208.965 20.8972 208.965 20.5198C208.965 16.9505 208.998 13.3812 208.933 9.81192C208.922 8.89533 209.216 8.67966 210.057 8.75514C210.755 8.81984 211.475 8.81984 212.173 8.75514C212.948 8.69044 213.21 8.88454 213.21 9.71486C213.177 14.9556 213.188 20.1963 213.21 25.4478C213.21 26.0517 213.079 26.2781 212.435 26.235C211.606 26.1811 210.755 26.1595 209.926 26.235C209.129 26.3105 208.791 26.0625 208.944 25.2645C208.965 25.1567 208.933 25.038 208.911 24.7685L208.922 24.79Z" fill="white"/>
<path d="M250.785 32.1015C253.786 30.0742 255.335 27.2813 256.568 24.262C256.819 23.6581 256.841 23.1729 256.568 22.569C254.615 18.2664 252.705 13.9531 250.785 9.63973C250.676 9.39171 250.48 9.16526 250.545 8.77706C251.92 8.77706 253.295 8.79862 254.658 8.77706C255.204 8.77706 255.248 9.16526 255.379 9.49954C256.513 12.2924 257.648 15.0961 258.772 17.889C258.892 18.1802 259.023 18.4605 259.23 18.9242C260.081 16.6921 260.856 14.6432 261.641 12.5836C262.034 11.5592 262.46 10.5347 262.787 9.48876C262.973 8.87411 263.289 8.73392 263.889 8.75549C265.166 8.79862 266.442 8.76627 267.741 8.76627C264.424 15.8941 262.012 23.3562 257.932 30.0634C257.255 31.1741 256.524 32.2417 255.608 33.1798C255.313 33.4818 255.062 33.5896 254.615 33.4171C253.436 32.9642 252.225 32.5868 250.785 32.0907V32.1015Z" fill="white"/>
<path d="M142.986 20.8546C145.582 22.7094 148.354 23.3887 151.409 22.9682C152.031 22.8819 152.576 22.6015 152.893 22.03C153.384 21.1458 153.144 20.4556 152.184 20.0459C150.907 19.5067 149.51 19.4636 148.168 19.1832C147.35 19.0107 146.564 18.7734 145.812 18.4176C144.088 17.598 143.04 16.3148 142.92 14.3954C142.789 12.2387 143.608 10.4702 145.593 9.55364C149.074 7.93613 152.576 8.01161 155.959 9.98497C156.428 10.2546 156.57 10.5673 156.373 11.0741C156.035 11.9475 155.719 12.821 155.348 13.8239C154.126 12.4975 152.587 12.0554 150.951 11.8505C150.045 11.7319 149.15 11.8505 148.299 12.1416C147.612 12.3789 147.197 12.8318 147.165 13.6082C147.132 14.3738 147.645 14.6434 148.212 14.9022C149.63 15.5276 151.18 15.6139 152.675 15.9374C155.85 16.6168 157.388 18.4931 157.214 21.6095C157.093 23.7554 155.762 25.1033 153.831 25.7826C150.263 27.0335 146.728 26.7208 143.269 25.2435C142.658 24.9847 142.44 24.618 142.593 23.9171C142.811 22.9466 142.855 21.933 142.986 20.8438V20.8546Z" fill="white"/>
<path d="M249.173 21.5768C249.173 22.7953 249.151 23.8521 249.173 24.9197C249.184 25.4373 248.89 25.6637 248.486 25.8255C246.391 26.6234 244.241 26.8715 242.125 25.9764C240.434 25.2647 239.692 23.809 239.452 22.0944C239.037 19.2692 239.31 16.4116 239.288 13.5756C239.288 12.756 239.102 12.4002 238.24 12.5511C237.989 12.5943 237.728 12.5296 237.466 12.5619C236.866 12.6482 236.647 12.411 236.724 11.8286C236.767 11.4836 236.724 11.1385 236.724 10.7827C236.735 10.1572 236.527 9.35925 236.844 8.9387C237.193 8.46423 238.044 8.79852 238.677 8.77695C239.146 8.77695 239.277 8.62598 239.266 8.17308C239.244 6.97613 239.266 5.76839 239.244 4.57143C239.244 4.12931 239.364 3.95678 239.833 3.97835C240.794 4.0107 241.765 4.0107 242.725 3.97835C243.249 3.95678 243.379 4.15088 243.369 4.62535C243.336 5.73604 243.401 6.83594 243.347 7.94663C243.314 8.63677 243.565 8.8093 244.22 8.77695C245.278 8.73382 246.347 8.77695 247.406 8.75538C247.929 8.73382 248.169 8.874 248.137 9.43474C248.093 10.1896 248.082 10.9552 248.137 11.71C248.18 12.357 248.006 12.6051 247.307 12.5619C246.216 12.4972 245.125 12.5619 244.023 12.5404C243.598 12.5404 243.358 12.6266 243.358 13.1119C243.379 15.3548 243.303 17.5978 243.412 19.8407C243.543 22.612 244.831 22.8277 247.438 22.4611C248.038 22.3748 248.529 21.9974 249.151 21.566L249.173 21.5768Z" fill="white"/>
<path d="M194.213 14.0607C192.478 12.2059 190.307 12.1736 188.103 12.3677C186.51 12.5186 185.07 13.942 184.666 15.6566C184.393 16.8428 184.437 18.0397 184.732 19.2151C185.473 22.159 187.874 23.1618 190.831 22.6874C192.249 22.4501 193.515 21.8463 194.595 20.5846C194.726 21.9972 194.857 23.2589 194.944 24.5205C194.966 24.8333 194.628 24.9734 194.399 25.1352C192.991 26.1488 191.344 26.4076 189.674 26.4939C185.593 26.6988 182.08 24.9627 180.705 21.3287C178.774 16.2389 180.978 9.72574 187.601 8.64741C189.86 8.28077 192.14 8.37782 194.268 9.44538C194.802 9.71496 194.911 9.99533 194.802 10.5561C194.573 11.6668 194.42 12.7882 194.213 14.0499V14.0607Z" fill="white"/>
<path d="M222.353 9.98465C223.793 8.38871 225.506 8.27009 227.361 8.69065C227.666 8.75535 227.906 8.83083 227.873 9.21903C227.764 10.5023 227.666 11.7747 227.557 13.101C225.582 11.958 224.109 12.0874 222.811 13.4245C222.429 13.8128 222.265 14.2333 222.276 14.7725C222.298 18.3094 222.276 21.8572 222.309 25.3941C222.309 26.0519 222.167 26.2783 221.48 26.2352C220.618 26.1705 219.745 26.2029 218.872 26.2352C218.403 26.246 218.195 26.1489 218.195 25.6206C218.217 20.2181 218.217 14.8156 218.195 9.40235C218.195 8.90631 218.348 8.73378 218.85 8.76613C219.592 8.79848 220.334 8.82005 221.065 8.76613C221.938 8.69065 222.538 8.82005 222.331 9.98465H222.353Z" fill="white"/>
<path d="M229.41 17.4899C229.41 14.8371 229.421 12.1737 229.399 9.52094C229.399 8.96021 229.519 8.72297 230.141 8.76611C230.97 8.82002 231.822 8.83081 232.651 8.76611C233.415 8.71219 233.622 8.94942 233.622 9.70426C233.589 14.4813 233.622 19.2476 233.589 24.0246C233.589 24.7363 233.971 25.7176 233.491 26.095C233.044 26.4616 232.083 26.2244 231.352 26.2244C229.41 26.2244 229.41 26.2244 229.41 24.3157C229.41 22.0404 229.41 19.7652 229.41 17.4899Z" fill="white"/>
<path d="M235.565 2.91057C234.812 3.93499 234.059 4.91628 233.35 5.91913C233.088 6.29655 232.881 6.42595 232.455 6.11323C231.538 5.4231 230.589 4.76531 229.651 4.11831C229.302 3.88107 229.171 3.67619 229.476 3.29877C230.218 2.38218 230.938 1.45481 231.637 0.51666C231.899 0.171592 232.106 0.203942 232.411 0.441176C233.459 1.2715 234.517 2.09103 235.565 2.89979V2.91057Z" fill="white"/>
<path d="M270.753 22.4184C270.753 23.7124 270.72 25.0064 270.764 26.3004C270.786 26.8612 270.578 27.0013 270.055 26.969C269.586 26.9366 269.204 27.0121 269.215 26.3112C269.258 23.6908 269.258 21.0705 269.215 18.4501C269.215 17.7708 269.542 17.7816 270.044 17.7708C270.568 17.7492 270.786 17.8786 270.764 18.4393C270.72 19.7657 270.753 21.0921 270.753 22.4184Z" fill="white"/>
<path d="M266.478 25.9229C266.544 26.5484 266.609 26.9905 265.736 26.9905C264.951 26.9905 264.852 26.6885 264.896 26.0631C264.929 25.5347 264.798 25.0387 265.682 25.0602C266.445 25.0818 266.653 25.3298 266.478 25.9229Z" fill="white"/>
<path d="M270.732 15.1183C270.917 15.8084 270.459 15.7545 269.979 15.7761C269.412 15.8084 269.226 15.6575 269.204 15.0536C269.182 14.3634 269.51 14.3311 270.066 14.2987C270.721 14.2664 270.83 14.5683 270.732 15.1075V15.1183Z" fill="white"/>
</g>
<defs>
<linearGradient id="paint0_linear_7_22447" x1="19.6676" y1="10.5624" x2="9.77724" y2="-1.60388" gradientUnits="userSpaceOnUse">
<stop stop-color="#FF8629"/>
<stop offset="1" stop-color="#FFD729"/>
</linearGradient>
<linearGradient id="paint1_linear_7_22447" x1="10.6439" y1="0.700704" x2="12.7266" y2="8.42757" gradientUnits="userSpaceOnUse">
<stop stop-color="white"/>
<stop offset="1" stop-color="white" stop-opacity="0"/>
</linearGradient>
<clipPath id="clip0_7_22447">
<rect width="281" height="34" fill="white"/>
</clipPath>
</defs>
</svg>
