<svg width="1328" height="581" viewBox="0 0 1328 581" fill="none" xmlns="http://www.w3.org/2000/svg">
<g clip-path="url(#clip0_7_21527)">
<g opacity="0.54">
<rect x="530.424" y="257.684" width="2.36509" height="2.36509" rx="1.18255" transform="rotate(-180 530.424 257.684)" fill="#FF8629"/>
<rect x="795.314" y="361.749" width="2.36509" height="2.36509" rx="1.18255" transform="rotate(-180 795.314 361.749)" fill="#FF8629" fill-opacity="0.3"/>
<rect x="1012.9" y="243.495" width="2.36509" height="2.36509" rx="1.18255" transform="rotate(-180 1012.9 243.495)" fill="#FF8629" fill-opacity="0.3"/>
<rect x="894.647" y="210.384" width="2.36509" height="2.36509" rx="1.18255" transform="rotate(-180 894.647 210.384)" fill="#FF8629" fill-opacity="0.3"/>
<rect x="738.553" y="252.955" width="2.36509" height="2.36509" rx="1.18255" transform="rotate(-180 738.553 252.955)" fill="#FF8629"/>
<rect x="714.9" y="229.305" width="2.36509" height="2.36509" rx="1.18255" transform="rotate(-180 714.9 229.305)" fill="#FF8629"/>
<rect x="544.613" y="205.652" width="2.36509" height="2.36509" rx="1.18255" transform="rotate(-180 544.613 205.652)" fill="#FF8629"/>
<rect x="416.898" y="347.559" width="2.36509" height="2.36509" rx="1.18255" transform="rotate(-180 416.898 347.559)" fill="#FF8629"/>
<rect x="582.455" y="210.383" width="4.73019" height="4.73019" rx="2.36509" transform="rotate(-180 582.455 210.383)" fill="#FF8629"/>
<rect x="710.172" y="186.73" width="4.73019" height="4.73019" rx="2.36509" transform="rotate(-180 710.172 186.73)" fill="#FF8629"/>
<rect x="625.025" y="328.638" width="4.73019" height="4.73019" rx="2.36509" transform="rotate(-180 625.025 328.638)" fill="#FF8629"/>
<rect x="681.789" y="243.495" width="4.73019" height="4.73019" rx="2.36509" transform="rotate(-180 681.789 243.495)" fill="#FF8629"/>
<rect x="790.584" y="229.305" width="4.73019" height="4.73019" rx="2.36509" transform="rotate(-180 790.584 229.305)" fill="#FF8629"/>
<rect x="733.822" y="304.987" width="4.73019" height="4.73019" rx="2.36509" transform="rotate(-180 733.822 304.987)" fill="#FF8629"/>
<rect x="870.998" y="361.749" width="4.73019" height="4.73019" rx="2.36509" transform="rotate(-180 870.998 361.749)" fill="#FF8629"/>
<rect x="426.357" y="271.877" width="4.73019" height="4.73019" rx="2.36509" transform="rotate(-180 426.357 271.877)" fill="#FF8629"/>
<rect x="724.361" y="219.844" width="2.36509" height="2.36509" rx="1.18255" transform="rotate(-180 724.361 219.844)" fill="#FF8629"/>
<rect x="601.377" y="271.876" width="2.36509" height="2.36509" rx="1.18255" transform="rotate(-180 601.377 271.876)" fill="#FF8629"/>
<rect x="582.455" y="243.495" width="2.36509" height="2.36509" rx="1.18255" transform="rotate(-180 582.455 243.495)" fill="#FF8629"/>
<rect x="596.646" y="234.034" width="2.36509" height="2.36509" rx="1.18255" transform="rotate(-180 596.646 234.034)" fill="#FF8629"/>
<rect x="681.789" y="304.987" width="2.36509" height="2.36509" rx="1.18255" transform="rotate(-180 681.789 304.987)" fill="#FF8629"/>
<rect x="554.074" y="290.795" width="2.36509" height="2.36509" rx="1.18255" transform="rotate(-180 554.074 290.795)" fill="#FF8629"/>
<rect x="752.742" y="186.73" width="2.36509" height="2.36509" rx="1.18255" transform="rotate(-180 752.742 186.73)" fill="#FF8629"/>
<rect x="847.346" y="257.684" width="2.36509" height="2.36509" rx="1.18255" transform="rotate(-180 847.346 257.684)" fill="#FF8629"/>
<rect x="459.471" y="191.462" width="2.36509" height="2.36509" rx="1.18255" transform="rotate(-180 459.471 191.462)" fill="#FF8629"/>
<rect x="549.344" y="347.559" width="2.36509" height="2.36509" rx="1.18255" transform="rotate(-180 549.344 347.559)" fill="#FF8629"/>
</g>
</g>
<path style="mix-blend-mode:screen" d="M751.093 373.255C800.825 323.522 800.825 242.889 751.093 193.157C701.36 143.424 620.727 143.424 570.994 193.157C521.262 242.889 521.262 323.522 570.994 373.255C620.727 422.988 701.36 422.988 751.093 373.255Z" fill="url(#paint0_radial_7_21527)"/>
<path style="mix-blend-mode:hard-light" opacity="0.52" d="M808.756 435.809C888.884 355.681 888.884 225.769 808.756 145.642C728.629 65.5144 598.717 65.5144 518.589 145.642C438.462 225.769 438.462 355.681 518.589 435.809C598.717 515.936 728.629 515.936 808.756 435.809Z" fill="url(#paint1_radial_7_21527)"/>
<path style="mix-blend-mode:screen" d="M510.968 138.172C518.479 131.966 574.609 189.962 636.361 267.747C698.112 345.51 742.053 413.604 734.565 419.81C727.054 426.017 670.924 368.021 609.173 290.235C547.421 212.45 503.457 144.379 510.968 138.15V138.172Z" fill="url(#paint2_radial_7_21527)"/>
<path style="mix-blend-mode:screen" d="M724.264 406.476C721.521 408.815 672.97 353.764 615.85 283.512C558.731 213.26 514.655 154.432 517.399 152.116C520.142 149.777 568.693 204.827 625.79 275.079C682.909 345.331 726.985 404.16 724.242 406.498L724.264 406.476Z" fill="url(#paint3_radial_7_21527)"/>
<path style="mix-blend-mode:screen" d="M595.049 149.822C597.321 149.169 617.29 204.737 639.643 273.954C661.996 343.15 678.277 399.774 676.006 400.426C673.734 401.078 653.765 345.511 631.412 276.316C609.059 207.121 592.778 150.474 595.049 149.844V149.822Z" fill="url(#paint4_radial_7_21527)"/>
<path style="mix-blend-mode:screen" d="M496.125 244.698C497.294 242.134 565.702 270.536 648.952 308.136C732.18 345.736 798.721 378.321 797.552 380.907C796.383 383.47 727.975 355.068 644.747 317.469C561.52 279.846 494.978 247.284 496.147 244.698H496.125Z" fill="url(#paint5_radial_7_21527)"/>
<path style="mix-blend-mode:screen" d="M496.104 408.251C493.855 405.35 572.495 347.466 671.756 278.969C770.995 210.471 853.278 157.287 855.527 160.188C857.776 163.089 779.136 220.972 679.874 289.47C580.613 357.968 498.33 411.152 496.104 408.251Z" fill="url(#paint6_radial_7_21527)"/>
<path style="mix-blend-mode:screen" d="M-0.000160217 293.249C-0.000160217 276.203 297.132 262.373 663.684 262.373C1030.24 262.373 1327.34 276.203 1327.34 293.249C1327.34 310.295 1030.21 324.125 663.684 324.125C297.154 324.125 -0.000160217 310.295 -0.000160217 293.249Z" fill="url(#paint7_radial_7_21527)"/>
<path style="mix-blend-mode:screen" d="M646.571 389.519C650.52 389.519 653.722 333.258 653.722 263.857C653.722 194.456 650.52 138.195 646.571 138.195C642.622 138.195 639.42 194.456 639.42 263.857C639.42 333.258 642.622 389.519 646.571 389.519Z" fill="url(#paint8_radial_7_21527)"/>
<path style="mix-blend-mode:screen" d="M646.572 332.985C648.745 332.985 650.507 302.035 650.507 263.857C650.507 225.679 648.745 194.729 646.572 194.729C644.399 194.729 642.637 225.679 642.637 263.857C642.637 302.035 644.399 332.985 646.572 332.985Z" fill="url(#paint9_radial_7_21527)"/>
<path style="mix-blend-mode:screen" d="M646.571 299.275C647.689 299.275 648.595 283.418 648.595 263.857C648.595 244.296 647.689 228.439 646.571 228.439C645.453 228.439 644.547 244.296 644.547 263.857C644.547 283.418 645.453 299.275 646.571 299.275Z" fill="url(#paint10_radial_7_21527)"/>
<path style="mix-blend-mode:screen" d="M744.099 97.5143C747.157 98.7736 715.606 177.818 673.644 274.044C631.682 370.269 595.162 447.245 592.103 445.986C589.045 444.727 620.595 365.682 662.558 269.456C704.52 173.231 741.04 96.2325 744.099 97.4918V97.5143Z" fill="url(#paint11_radial_7_21527)"/>
<path style="mix-blend-mode:screen" d="M456.862 353.471C456.278 350.705 541.372 330.152 646.93 307.551C752.488 284.951 838.526 268.872 839.111 271.638C839.695 274.404 754.624 294.958 649.066 317.558C543.508 340.159 457.469 356.237 456.862 353.471Z" fill="url(#paint12_radial_7_21527)"/>
<path style="mix-blend-mode:screen" d="M457.473 268.872C458.102 266.128 543.916 283.444 649.137 307.573C754.357 331.703 839.136 353.494 838.507 356.26C837.877 359.003 752.063 341.687 646.865 317.558C541.645 293.428 456.865 271.638 457.495 268.872H457.473Z" fill="url(#paint13_radial_7_21527)"/>
<path style="mix-blend-mode:screen" d="M653.989 299.164C552.681 299.164 470.578 295.408 470.578 290.798C470.578 286.188 552.704 282.433 653.989 282.433C755.274 282.433 837.4 286.188 837.4 290.798C837.4 295.408 755.274 299.164 653.989 299.164Z" fill="url(#paint14_radial_7_21527)"/>
<path style="mix-blend-mode:screen" d="M653.987 295.408C709.714 295.408 754.89 293.344 754.89 290.798C754.89 288.252 709.714 286.188 653.987 286.188C598.26 286.188 553.084 288.252 553.084 290.798C553.084 293.344 598.26 295.408 653.987 295.408Z" fill="url(#paint15_radial_7_21527)"/>
<path style="mix-blend-mode:screen" d="M653.989 293.159C625.429 293.159 602.289 292.102 602.289 290.798C602.289 289.493 625.429 288.436 653.989 288.436C682.548 288.436 705.688 289.493 705.688 290.798C705.688 292.102 682.548 293.159 653.989 293.159Z" fill="url(#paint16_radial_7_21527)"/>
<path style="mix-blend-mode:screen" d="M647.965 82.1106C660.58 82.1106 670.835 165.406 670.835 268.153C670.835 370.899 660.603 454.194 647.965 454.194C635.327 454.194 625.117 370.899 625.117 268.153C625.117 165.406 635.349 82.1106 647.965 82.1106Z" fill="url(#paint17_radial_7_21527)"/>
<path style="mix-blend-mode:screen" d="M577.444 131.876C585.787 128.84 619.002 190.974 651.609 270.604C684.217 350.256 703.894 417.269 695.551 420.283C687.208 423.319 653.993 361.185 621.386 281.555C588.756 201.903 569.079 134.89 577.422 131.854L577.444 131.876Z" fill="url(#paint18_radial_7_21527)"/>
<path style="mix-blend-mode:screen" d="M771.918 106.936C781.206 112.379 742.662 191.041 685.857 282.589C629.053 374.16 575.465 443.962 566.2 438.497C556.935 433.055 595.456 354.415 652.261 262.845C709.065 171.274 762.653 101.472 771.941 106.914L771.918 106.936Z" fill="url(#paint19_radial_7_21527)"/>
<path style="mix-blend-mode:screen" d="M848.039 171.41C862.386 192.009 796.902 256.526 701.778 315.512C606.677 374.498 517.94 405.598 503.615 384.999C489.29 364.4 554.752 299.883 649.876 240.897C745 181.912 833.714 150.811 848.061 171.41H848.039Z" fill="url(#paint20_radial_7_21527)"/>
<path style="mix-blend-mode:screen" d="M770.616 393.994C759.304 416.392 671.422 389.407 574.342 333.727C477.262 278.047 407.752 214.721 419.086 192.323C430.397 169.925 518.28 196.911 615.36 252.613C712.44 308.316 781.949 371.619 770.638 394.017L770.616 393.994Z" fill="url(#paint21_radial_7_21527)"/>
<path style="mix-blend-mode:screen" d="M882.895 344.588C877.925 374.497 768.229 381.199 637.845 359.565C507.483 337.91 405.838 296.105 410.807 266.196C415.777 236.287 525.473 229.586 655.835 251.241C786.197 272.897 887.842 314.68 882.895 344.588Z" fill="url(#paint22_radial_7_21527)"/>
<path style="mix-blend-mode:screen" d="M727.749 297.498C532.263 297.498 373.791 293.72 373.791 289.088C373.791 284.455 532.263 280.677 727.749 280.677C923.236 280.677 1081.71 284.455 1081.71 289.088C1081.71 293.72 923.236 297.498 727.749 297.498Z" fill="url(#paint23_radial_7_21527)"/>
<path style="mix-blend-mode:screen" d="M727.751 293.721C620.214 293.721 533.029 291.652 533.029 289.089C533.029 286.525 620.214 284.456 727.751 284.456C835.288 284.456 922.474 286.525 922.474 289.089C922.474 291.652 835.288 293.721 727.751 293.721Z" fill="url(#paint24_radial_7_21527)"/>
<path style="mix-blend-mode:screen" d="M727.75 291.45C672.655 291.45 627.994 290.393 627.994 289.088C627.994 287.784 672.655 286.727 727.75 286.727C782.845 286.727 827.506 287.784 827.506 289.088C827.506 290.393 782.845 291.45 727.75 291.45Z" fill="url(#paint25_radial_7_21527)"/>
<path style="mix-blend-mode:screen" d="M1239.71 290.73C1239.71 305.594 1005.09 317.67 715.653 317.67C426.212 317.67 191.619 305.617 191.619 290.73C191.619 275.843 426.235 263.79 715.653 263.79C1005.07 263.79 1239.71 275.843 1239.71 290.73Z" fill="url(#paint26_radial_7_21527)"/>
<path style="mix-blend-mode:screen" d="M712.39 304.438C719.924 272.91 700.474 241.244 668.946 233.71C637.418 226.176 605.752 245.626 598.218 277.154C590.684 308.682 610.134 340.347 641.662 347.882C673.19 355.416 704.856 335.965 712.39 304.438Z" fill="url(#paint27_radial_7_21527)"/>
<path style="mix-blend-mode:color-dodge" opacity="0.31" d="M802.165 361.759C802.165 444.986 734.657 512.495 651.384 512.495C568.112 512.495 500.648 444.986 500.648 361.759C500.648 278.531 568.157 211 651.384 211C734.612 211 802.165 278.486 802.165 361.759Z" fill="url(#paint28_radial_7_21527)"/>
<path style="mix-blend-mode:screen" d="M1100 319.5C1100 373.903 902.803 418 659.5 418C416.197 418 219 373.903 219 319.5C219 265.097 416.197 221 659.5 221C902.803 221 1100 265.097 1100 319.5Z" fill="url(#paint29_radial_7_21527)"/>
<defs>
<radialGradient id="paint0_radial_7_21527" cx="0" cy="0" r="1" gradientUnits="userSpaceOnUse" gradientTransform="translate(661.063 283.205) scale(127.349)">
<stop stop-color="#FA902C"/>
<stop offset="0.1" stop-color="#F48D2B" stop-opacity="0.98"/>
<stop offset="0.23" stop-color="#E58428" stop-opacity="0.92"/>
<stop offset="0.36" stop-color="#CD7624" stop-opacity="0.82"/>
<stop offset="0.51" stop-color="#AB621E" stop-opacity="0.68"/>
<stop offset="0.66" stop-color="#7E4916" stop-opacity="0.51"/>
<stop offset="0.82" stop-color="#48290C" stop-opacity="0.29"/>
<stop offset="0.98" stop-color="#0A0501" stop-opacity="0.04"/>
<stop offset="1" stop-opacity="0"/>
</radialGradient>
<radialGradient id="paint1_radial_7_21527" cx="0" cy="0" r="1" gradientUnits="userSpaceOnUse" gradientTransform="translate(663.684 290.73) scale(205.179)">
<stop stop-color="#FABA2C"/>
<stop offset="0.07" stop-color="#F5B52A" stop-opacity="0.96"/>
<stop offset="0.18" stop-color="#E8A827" stop-opacity="0.83"/>
<stop offset="0.34" stop-color="#D29421" stop-opacity="0.64"/>
<stop offset="0.52" stop-color="#B5781A" stop-opacity="0.37"/>
<stop offset="0.73" stop-color="#905510" stop-opacity="0.03"/>
<stop offset="0.75" stop-color="#8D5210" stop-opacity="0"/>
</radialGradient>
<radialGradient id="paint2_radial_7_21527" cx="0" cy="0" r="1" gradientUnits="userSpaceOnUse" gradientTransform="translate(439.475 400.486) rotate(-128.45) scale(181.374 20.1527)">
<stop stop-color="#FFA200"/>
<stop offset="0.01" stop-color="#FF8F00"/>
<stop offset="0.03" stop-color="#FF6900"/>
<stop offset="0.05" stop-color="#F86600"/>
<stop offset="0.21" stop-color="#B74B00"/>
<stop offset="0.36" stop-color="#7F3400"/>
<stop offset="0.51" stop-color="#512100"/>
<stop offset="0.65" stop-color="#2E1300"/>
<stop offset="0.78" stop-color="#140800"/>
<stop offset="0.9" stop-color="#050200"/>
<stop offset="1"/>
</radialGradient>
<radialGradient id="paint3_radial_7_21527" cx="0" cy="0" r="1" gradientUnits="userSpaceOnUse" gradientTransform="translate(600.029 269.426) rotate(50.88) scale(165.656 4.73302)">
<stop stop-color="#FFA200"/>
<stop offset="0.01" stop-color="#FF8F00"/>
<stop offset="0.03" stop-color="#FF6900"/>
<stop offset="0.07" stop-color="#D85900"/>
<stop offset="0.13" stop-color="#AB4600"/>
<stop offset="0.19" stop-color="#823500"/>
<stop offset="0.25" stop-color="#5F2700"/>
<stop offset="0.33" stop-color="#411A00"/>
<stop offset="0.4" stop-color="#291100"/>
<stop offset="0.49" stop-color="#160900"/>
<stop offset="0.59" stop-color="#090400"/>
<stop offset="0.73" stop-color="#020000"/>
<stop offset="1"/>
</radialGradient>
<radialGradient id="paint4_radial_7_21527" cx="0" cy="0" r="1" gradientUnits="userSpaceOnUse" gradientTransform="translate(856.286 222.727) rotate(-107.91) scale(130.475 3.34552)">
<stop stop-color="#FFA200"/>
<stop offset="0.01" stop-color="#FF8F00"/>
<stop offset="0.03" stop-color="#FF6900"/>
<stop offset="0.07" stop-color="#D85900"/>
<stop offset="0.13" stop-color="#AB4600"/>
<stop offset="0.19" stop-color="#823500"/>
<stop offset="0.25" stop-color="#5F2700"/>
<stop offset="0.33" stop-color="#411A00"/>
<stop offset="0.4" stop-color="#291100"/>
<stop offset="0.49" stop-color="#160900"/>
<stop offset="0.59" stop-color="#090400"/>
<stop offset="0.73" stop-color="#020000"/>
<stop offset="1"/>
</radialGradient>
<radialGradient id="paint5_radial_7_21527" cx="0" cy="0" r="1" gradientUnits="userSpaceOnUse" gradientTransform="translate(581.697 502.171) rotate(-155.68) scale(166.804 6.67214)">
<stop stop-color="#FFA200"/>
<stop offset="0.01" stop-color="#FF8F00"/>
<stop offset="0.03" stop-color="#FF6900"/>
<stop offset="0.07" stop-color="#D85900"/>
<stop offset="0.13" stop-color="#AB4600"/>
<stop offset="0.19" stop-color="#823500"/>
<stop offset="0.25" stop-color="#5F2700"/>
<stop offset="0.33" stop-color="#411A00"/>
<stop offset="0.4" stop-color="#291100"/>
<stop offset="0.49" stop-color="#160900"/>
<stop offset="0.59" stop-color="#090400"/>
<stop offset="0.73" stop-color="#020000"/>
<stop offset="1"/>
</radialGradient>
<radialGradient id="paint6_radial_7_21527" cx="0" cy="0" r="1" gradientUnits="userSpaceOnUse" gradientTransform="translate(713.932 305.881) rotate(145.39) scale(219.584 5.2282)">
<stop stop-color="#FFA200"/>
<stop offset="0.01" stop-color="#FF8F00"/>
<stop offset="0.03" stop-color="#FF6900"/>
<stop offset="0.07" stop-color="#D85900"/>
<stop offset="0.13" stop-color="#AB4600"/>
<stop offset="0.19" stop-color="#823500"/>
<stop offset="0.25" stop-color="#5F2700"/>
<stop offset="0.33" stop-color="#411A00"/>
<stop offset="0.4" stop-color="#291100"/>
<stop offset="0.49" stop-color="#160900"/>
<stop offset="0.59" stop-color="#090400"/>
<stop offset="0.73" stop-color="#020000"/>
<stop offset="1"/>
</radialGradient>
<radialGradient id="paint7_radial_7_21527" cx="0" cy="0" r="1" gradientUnits="userSpaceOnUse" gradientTransform="translate(668.599 287.386) rotate(-180) scale(664.343 30.7566)">
<stop stop-color="#FFA200"/>
<stop offset="0.01" stop-color="#FF8F00"/>
<stop offset="0.03" stop-color="#FF6900"/>
<stop offset="0.05" stop-color="#F86600" stop-opacity="0.98"/>
<stop offset="0.21" stop-color="#B74B00" stop-opacity="0.75"/>
<stop offset="0.36" stop-color="#7F3400" stop-opacity="0.55"/>
<stop offset="0.51" stop-color="#512100" stop-opacity="0.39"/>
<stop offset="0.65" stop-color="#2E1300" stop-opacity="0.26"/>
<stop offset="0.78" stop-color="#140800" stop-opacity="0.17"/>
<stop offset="0.9" stop-color="#050200" stop-opacity="0.12"/>
<stop offset="1" stop-opacity="0.1"/>
</radialGradient>
<radialGradient id="paint8_radial_7_21527" cx="0" cy="0" r="1" gradientUnits="userSpaceOnUse" gradientTransform="translate(646.571 266.211) scale(7.28608 120.584)">
<stop stop-color="#BD1B04"/>
<stop offset="0.48" stop-color="#650E02"/>
<stop offset="1"/>
</radialGradient>
<radialGradient id="paint9_radial_7_21527" cx="0" cy="0" r="1" gradientUnits="userSpaceOnUse" gradientTransform="translate(646.572 263.528) scale(3.48562 67.7604)">
<stop stop-color="#F2BA0A"/>
<stop offset="0.25" stop-color="#A78006"/>
<stop offset="0.52" stop-color="#604A03"/>
<stop offset="0.74" stop-color="#2C2201"/>
<stop offset="0.91" stop-color="#0C0900"/>
<stop offset="1"/>
</radialGradient>
<radialGradient id="paint10_radial_7_21527" cx="0" cy="0" r="1" gradientUnits="userSpaceOnUse" gradientTransform="translate(646.571 264.963) scale(2.11388 34.4559)">
<stop stop-color="white"/>
<stop offset="0.12" stop-color="#C7C7C7"/>
<stop offset="0.24" stop-color="#939393"/>
<stop offset="0.37" stop-color="#666666"/>
<stop offset="0.5" stop-color="#414141"/>
<stop offset="0.63" stop-color="#242424"/>
<stop offset="0.75" stop-color="#101010"/>
<stop offset="0.88" stop-color="#040404"/>
<stop offset="1"/>
</radialGradient>
<radialGradient id="paint11_radial_7_21527" cx="0" cy="0" r="1" gradientUnits="userSpaceOnUse" gradientTransform="translate(908.125 333.145) rotate(-66.44) scale(189.249 4.73122)">
<stop stop-color="#FFA200"/>
<stop offset="0.01" stop-color="#FF8F00"/>
<stop offset="0.03" stop-color="#FF6900"/>
<stop offset="0.07" stop-color="#D85900"/>
<stop offset="0.13" stop-color="#AB4600"/>
<stop offset="0.19" stop-color="#823500"/>
<stop offset="0.25" stop-color="#5F2700"/>
<stop offset="0.33" stop-color="#411A00"/>
<stop offset="0.4" stop-color="#291100"/>
<stop offset="0.49" stop-color="#160900"/>
<stop offset="0.59" stop-color="#090400"/>
<stop offset="0.73" stop-color="#020000"/>
<stop offset="1"/>
</radialGradient>
<radialGradient id="paint12_radial_7_21527" cx="0" cy="0" r="1" gradientUnits="userSpaceOnUse" gradientTransform="translate(680.993 365.859) rotate(167.92) scale(196.934 6.67574)">
<stop stop-color="#FFA200"/>
<stop offset="0.01" stop-color="#FF8F00"/>
<stop offset="0.03" stop-color="#FF6900"/>
<stop offset="0.07" stop-color="#D85900"/>
<stop offset="0.13" stop-color="#AB4600"/>
<stop offset="0.19" stop-color="#823500"/>
<stop offset="0.25" stop-color="#5F2700"/>
<stop offset="0.33" stop-color="#411A00"/>
<stop offset="0.4" stop-color="#291100"/>
<stop offset="0.49" stop-color="#160900"/>
<stop offset="0.59" stop-color="#090400"/>
<stop offset="0.73" stop-color="#020000"/>
<stop offset="1"/>
</radialGradient>
<radialGradient id="paint13_radial_7_21527" cx="0" cy="0" r="1" gradientUnits="userSpaceOnUse" gradientTransform="translate(632.395 470.616) rotate(-167.08) scale(197.293 6.68788)">
<stop stop-color="#FFA200"/>
<stop offset="0.01" stop-color="#FF8F00"/>
<stop offset="0.03" stop-color="#FF6900"/>
<stop offset="0.07" stop-color="#D85900"/>
<stop offset="0.13" stop-color="#AB4600"/>
<stop offset="0.19" stop-color="#823500"/>
<stop offset="0.25" stop-color="#5F2700"/>
<stop offset="0.33" stop-color="#411A00"/>
<stop offset="0.4" stop-color="#291100"/>
<stop offset="0.49" stop-color="#160900"/>
<stop offset="0.59" stop-color="#090400"/>
<stop offset="0.73" stop-color="#020000"/>
<stop offset="1"/>
</radialGradient>
<radialGradient id="paint14_radial_7_21527" cx="0" cy="0" r="1" gradientUnits="userSpaceOnUse" gradientTransform="translate(656.847 290.798) rotate(90) scale(8.54538 176.206)">
<stop stop-color="#BD1B04"/>
<stop offset="0.48" stop-color="#650E02"/>
<stop offset="1"/>
</radialGradient>
<radialGradient id="paint15_radial_7_21527" cx="0" cy="0" r="1" gradientUnits="userSpaceOnUse" gradientTransform="translate(655.385 290.798) rotate(90) scale(4.07029 98.6234)">
<stop stop-color="#F2BA0A"/>
<stop offset="0.25" stop-color="#A78006"/>
<stop offset="0.52" stop-color="#604A03"/>
<stop offset="0.74" stop-color="#2C2201"/>
<stop offset="0.91" stop-color="#0C0900"/>
<stop offset="1"/>
</radialGradient>
<radialGradient id="paint16_radial_7_21527" cx="0" cy="0" r="1" gradientUnits="userSpaceOnUse" gradientTransform="translate(657.779 290.798) rotate(90) scale(2.47365 50.2401)">
<stop stop-color="white"/>
<stop offset="0.12" stop-color="#C7C7C7"/>
<stop offset="0.24" stop-color="#939393"/>
<stop offset="0.37" stop-color="#666666"/>
<stop offset="0.5" stop-color="#414141"/>
<stop offset="0.63" stop-color="#242424"/>
<stop offset="0.75" stop-color="#101010"/>
<stop offset="0.88" stop-color="#040404"/>
<stop offset="1"/>
</radialGradient>
<radialGradient id="paint17_radial_7_21527" cx="0" cy="0" r="1" gradientUnits="userSpaceOnUse" gradientTransform="translate(657.333 275.567) rotate(-90) scale(186.715 22.7701)">
<stop stop-color="#FFA200"/>
<stop offset="0.01" stop-color="#FF8F00"/>
<stop offset="0.03" stop-color="#FF6900"/>
<stop offset="0.05" stop-color="#F86600"/>
<stop offset="0.21" stop-color="#B74B00"/>
<stop offset="0.36" stop-color="#7F3400"/>
<stop offset="0.51" stop-color="#512100"/>
<stop offset="0.65" stop-color="#2E1300"/>
<stop offset="0.78" stop-color="#140800"/>
<stop offset="0.9" stop-color="#050200"/>
<stop offset="1"/>
</radialGradient>
<radialGradient id="paint18_radial_7_21527" cx="0" cy="0" r="1" gradientUnits="userSpaceOnUse" gradientTransform="translate(752.5 329.436) rotate(-112.27) scale(157.174 15.334)">
<stop stop-color="#FFA200"/>
<stop offset="0.01" stop-color="#FF8F00"/>
<stop offset="0.03" stop-color="#FF6900"/>
<stop offset="0.05" stop-color="#F86600"/>
<stop offset="0.21" stop-color="#B74B00"/>
<stop offset="0.36" stop-color="#7F3400"/>
<stop offset="0.51" stop-color="#512100"/>
<stop offset="0.65" stop-color="#2E1300"/>
<stop offset="0.78" stop-color="#140800"/>
<stop offset="0.9" stop-color="#050200"/>
<stop offset="1"/>
</radialGradient>
<radialGradient id="paint19_radial_7_21527" cx="0" cy="0" r="1" gradientUnits="userSpaceOnUse" gradientTransform="translate(739.621 292.4) rotate(-58.18) scale(197.464 18.8061)">
<stop stop-color="#FFA200"/>
<stop offset="0.01" stop-color="#FF8F00"/>
<stop offset="0.03" stop-color="#FF6900"/>
<stop offset="0.05" stop-color="#F86600"/>
<stop offset="0.21" stop-color="#B74B00"/>
<stop offset="0.36" stop-color="#7F3400"/>
<stop offset="0.51" stop-color="#512100"/>
<stop offset="0.65" stop-color="#2E1300"/>
<stop offset="0.78" stop-color="#140800"/>
<stop offset="0.9" stop-color="#050200"/>
<stop offset="1"/>
</radialGradient>
<radialGradient id="paint20_radial_7_21527" cx="0" cy="0" r="1" gradientUnits="userSpaceOnUse" gradientTransform="translate(776.996 63.2168) rotate(-31.81) scale(202.06 46.9906)">
<stop stop-color="#FFA200"/>
<stop offset="0.01" stop-color="#FF8F00"/>
<stop offset="0.03" stop-color="#FF6900"/>
<stop offset="0.05" stop-color="#F86600"/>
<stop offset="0.21" stop-color="#B74B00"/>
<stop offset="0.36" stop-color="#7F3400"/>
<stop offset="0.51" stop-color="#512100"/>
<stop offset="0.65" stop-color="#2E1300"/>
<stop offset="0.78" stop-color="#140800"/>
<stop offset="0.9" stop-color="#050200"/>
<stop offset="1"/>
</radialGradient>
<radialGradient id="paint21_radial_7_21527" cx="0" cy="0" r="1" gradientUnits="userSpaceOnUse" gradientTransform="translate(798.756 284.344) rotate(29.84) scale(202.079 46.9951)">
<stop stop-color="#FFA200"/>
<stop offset="0.01" stop-color="#FF8F00"/>
<stop offset="0.03" stop-color="#FF6900"/>
<stop offset="0.05" stop-color="#F86600"/>
<stop offset="0.21" stop-color="#B74B00"/>
<stop offset="0.36" stop-color="#7F3400"/>
<stop offset="0.51" stop-color="#512100"/>
<stop offset="0.65" stop-color="#2E1300"/>
<stop offset="0.78" stop-color="#140800"/>
<stop offset="0.9" stop-color="#050200"/>
<stop offset="1"/>
</radialGradient>
<radialGradient id="paint22_radial_7_21527" cx="0" cy="0" r="1" gradientUnits="userSpaceOnUse" gradientTransform="translate(659.255 205.513) rotate(9.43) scale(239.629 56.3833)">
<stop stop-color="#FFA200"/>
<stop offset="0.01" stop-color="#FF8F00"/>
<stop offset="0.03" stop-color="#FF6900"/>
<stop offset="0.05" stop-color="#F86600"/>
<stop offset="0.21" stop-color="#B74B00"/>
<stop offset="0.36" stop-color="#7F3400"/>
<stop offset="0.51" stop-color="#512100"/>
<stop offset="0.65" stop-color="#2E1300"/>
<stop offset="0.78" stop-color="#140800"/>
<stop offset="0.9" stop-color="#050200"/>
<stop offset="1"/>
</radialGradient>
<radialGradient id="paint23_radial_7_21527" cx="0" cy="0" r="1" gradientUnits="userSpaceOnUse" gradientTransform="translate(727.772 289.065) rotate(90) scale(8.59037 339.835)">
<stop stop-color="#BD1B04"/>
<stop offset="0.48" stop-color="#650E02"/>
<stop offset="1"/>
</radialGradient>
<radialGradient id="paint24_radial_7_21527" cx="0" cy="0" r="1" gradientUnits="userSpaceOnUse" gradientTransform="translate(728.898 289.066) rotate(90) scale(4.11527 191.278)">
<stop stop-color="#F2BA0A"/>
<stop offset="0.25" stop-color="#A78006"/>
<stop offset="0.52" stop-color="#604A03"/>
<stop offset="0.74" stop-color="#2C2201"/>
<stop offset="0.91" stop-color="#0C0900"/>
<stop offset="1"/>
</radialGradient>
<radialGradient id="paint25_radial_7_21527" cx="0" cy="0" r="1" gradientUnits="userSpaceOnUse" gradientTransform="translate(725.574 289.066) rotate(90) scale(2.47367 96.3986)">
<stop stop-color="white"/>
<stop offset="0.12" stop-color="#C7C7C7"/>
<stop offset="0.24" stop-color="#939393"/>
<stop offset="0.37" stop-color="#666666"/>
<stop offset="0.5" stop-color="#414141"/>
<stop offset="0.63" stop-color="#242424"/>
<stop offset="0.75" stop-color="#101010"/>
<stop offset="0.88" stop-color="#040404"/>
<stop offset="1"/>
</radialGradient>
<radialGradient id="paint26_radial_7_21527" cx="0" cy="0" r="1" gradientUnits="userSpaceOnUse" gradientTransform="translate(690.657 299.115) scale(525.807 26.8269)">
<stop stop-color="#FFA200"/>
<stop offset="0.01" stop-color="#FF8F00"/>
<stop offset="0.03" stop-color="#FF6900"/>
<stop offset="0.05" stop-color="#F86600"/>
<stop offset="0.21" stop-color="#B74B00"/>
<stop offset="0.36" stop-color="#7F3400"/>
<stop offset="0.51" stop-color="#512100"/>
<stop offset="0.65" stop-color="#2E1300"/>
<stop offset="0.78" stop-color="#140800"/>
<stop offset="0.9" stop-color="#050200"/>
<stop offset="1"/>
</radialGradient>
<radialGradient id="paint27_radial_7_21527" cx="0" cy="0" r="1" gradientUnits="userSpaceOnUse" gradientTransform="translate(655.317 290.739) scale(58.6933 58.6933)">
<stop stop-color="white"/>
<stop offset="0.1" stop-color="#F9F9F9" stop-opacity="0.98"/>
<stop offset="0.23" stop-color="#EAEAEA" stop-opacity="0.92"/>
<stop offset="0.36" stop-color="#D2D2D2" stop-opacity="0.83"/>
<stop offset="0.5" stop-color="#B0B0B0" stop-opacity="0.69"/>
<stop offset="0.65" stop-color="#838383" stop-opacity="0.52"/>
<stop offset="0.81" stop-color="#4D4D4D" stop-opacity="0.3"/>
<stop offset="0.96" stop-color="#0F0F0F" stop-opacity="0.06"/>
<stop offset="1" stop-opacity="0"/>
</radialGradient>
<radialGradient id="paint28_radial_7_21527" cx="0" cy="0" r="1" gradientUnits="userSpaceOnUse" gradientTransform="translate(651.407 361.736) scale(150.758 150.759)">
<stop/>
<stop offset="0.7" stop-color="#0C0301"/>
<stop offset="0.72" stop-color="#110501"/>
<stop offset="0.73" stop-color="#220D02"/>
<stop offset="0.76" stop-color="#451D03"/>
<stop offset="0.78" stop-color="#2C1302"/>
<stop offset="0.81" stop-color="#180A01"/>
<stop offset="0.84" stop-color="#0A0400"/>
<stop offset="0.87" stop-color="#020100"/>
<stop offset="0.94"/>
</radialGradient>
<radialGradient id="paint29_radial_7_21527" cx="0" cy="0" r="1" gradientUnits="userSpaceOnUse" gradientTransform="translate(660.07 321.761) scale(441.498 98.7827)">
<stop offset="0.06" stop-color="white"/>
<stop offset="0.08" stop-color="#FFFCF7"/>
<stop offset="0.1" stop-color="#FFF6E1"/>
<stop offset="0.13" stop-color="#FFECBE"/>
<stop offset="0.17" stop-color="#FFDE8D"/>
<stop offset="0.2" stop-color="#FFCD4E"/>
<stop offset="0.25" stop-color="#FFB700"/>
<stop offset="0.28" stop-color="#FFA400"/>
<stop offset="0.33" stop-color="#FF7300"/>
<stop offset="0.35" stop-color="#FF6800"/>
<stop offset="0.39" stop-color="#D35600"/>
<stop offset="0.45" stop-color="#A24200"/>
<stop offset="0.52" stop-color="#763000"/>
<stop offset="0.58" stop-color="#522100"/>
<stop offset="0.65" stop-color="#341500"/>
<stop offset="0.72" stop-color="#1D0B00"/>
<stop offset="0.8" stop-color="#0C0500"/>
<stop offset="0.89" stop-color="#030100"/>
<stop offset="1"/>
</radialGradient>
<clipPath id="clip0_7_21527">
<rect width="598.907" height="182" fill="white" transform="translate(414.535 182)"/>
</clipPath>
</defs>
</svg>
