<svg width="62" height="62" viewBox="0 0 62 62" fill="none" xmlns="http://www.w3.org/2000/svg">
<circle cx="30.8" cy="30.8" r="30.8" fill="#2E2E2E"/>
<path d="M40.936 21.8121H40.376L35.644 17.0801C35.266 16.7021 34.65 16.7021 34.258 17.0801C33.88 17.4581 33.88 18.0741 34.258 18.4661L37.604 21.8121H23.996L27.342 18.4661C27.72 18.0881 27.72 17.4721 27.342 17.0801C26.964 16.7021 26.348 16.7021 25.956 17.0801L21.238 21.8121H20.678C19.418 21.8121 16.8 21.8121 16.8 25.3961C16.8 26.7541 17.08 27.6501 17.668 28.2381C18.004 28.5881 18.41 28.7701 18.844 28.8681C19.25 28.9661 19.684 28.9801 20.104 28.9801H41.496C41.93 28.9801 42.336 28.9521 42.728 28.8681C43.904 28.5881 44.8 27.7481 44.8 25.3961C44.8 21.8121 42.182 21.8121 40.936 21.8121Z" fill="#768E91"/>
<path d="M40.6699 30.8H20.8179C19.9499 30.8 19.2919 31.57 19.4319 32.424L20.6079 39.62C20.9999 42.028 22.0499 44.8 26.7119 44.8H34.5659C39.2839 44.8 40.1239 42.434 40.6279 39.788L42.0419 32.466C42.2099 31.598 41.5519 30.8 40.6699 30.8ZM28.8539 39.83C28.8539 40.376 28.4199 40.81 27.8879 40.81C27.3419 40.81 26.9079 40.376 26.9079 39.83V35.21C26.9079 34.678 27.3419 34.23 27.8879 34.23C28.4199 34.23 28.8539 34.678 28.8539 35.21V39.83ZM34.8459 39.83C34.8459 40.376 34.4119 40.81 33.8659 40.81C33.3339 40.81 32.8859 40.376 32.8859 39.83V35.21C32.8859 34.678 33.3339 34.23 33.8659 34.23C34.4119 34.23 34.8459 34.678 34.8459 35.21V39.83Z" fill="#768E91"/>
</svg>
