<svg width="1440" height="1197" viewBox="0 0 1440 1197" fill="none" xmlns="http://www.w3.org/2000/svg">
<g filter="url(#filter0_f_5196_385)">
<path d="M1763.66 883.618C1734.27 993.334 1233.58 954.757 645.433 797.165C57.2916 639.573 -395.66 422.831 -366.209 312.92C-336.759 203.008 163.828 241.975 751.969 399.567C1340.11 557.16 1793.06 773.902 1763.66 883.618Z" fill="#350406" fill-opacity="0.69" style="mix-blend-mode:screen"/>
</g>
<g clip-path="url(#clip0_5196_385)">
<g filter="url(#filter1_f_5196_385)">
<circle cx="1225.5" cy="334.5" r="21.5" fill="white" fill-opacity="0.31"/>
</g>
<g filter="url(#filter2_f_5196_385)">
<circle cx="2" cy="512" r="43" fill="white" fill-opacity="0.11"/>
</g>
<circle cx="1074.5" cy="421.5" r="6.5" fill="white" fill-opacity="0.22"/>
<circle cx="295.5" cy="441.5" r="6.5" fill="white" fill-opacity="0.13"/>
<circle cx="982.5" cy="169.5" r="6.5" fill="white" fill-opacity="0.2"/>
<circle cx="1371" cy="446" r="11" fill="white" fill-opacity="0.16"/>
<circle cx="174.5" cy="493.5" r="4.5" fill="white" fill-opacity="0.31"/>
<circle cx="589" cy="180" r="3" fill="white" fill-opacity="0.37"/>
<circle cx="205" cy="370" r="3" fill="white" fill-opacity="0.31"/>
<circle cx="1121" cy="510" r="3" fill="white" fill-opacity="0.31"/>
<circle cx="453" cy="491" r="3" fill="white" fill-opacity="0.31"/>
<circle cx="1264" cy="197" r="3" fill="white" fill-opacity="0.31"/>
<g filter="url(#filter3_f_5196_385)">
<circle cx="240" cy="226" r="28" fill="white" fill-opacity="0.09"/>
</g>
<g filter="url(#filter4_f_5196_385)">
<circle cx="512.5" cy="299.5" r="6.5" fill="white" fill-opacity="0.16"/>
</g>
</g>
<g clip-path="url(#clip1_5196_385)">
<g opacity="0.54">
<rect x="586.424" y="532.684" width="2.36509" height="2.36509" rx="1.18255" transform="rotate(-180 586.424 532.684)" fill="#FF8629"/>
<rect x="851.314" y="636.749" width="2.36509" height="2.36509" rx="1.18255" transform="rotate(-180 851.314 636.749)" fill="#FF8629" fill-opacity="0.3"/>
<rect x="1068.9" y="518.495" width="2.36509" height="2.36509" rx="1.18255" transform="rotate(-180 1068.9 518.495)" fill="#FF8629" fill-opacity="0.3"/>
<rect x="950.647" y="485.384" width="2.36509" height="2.36509" rx="1.18255" transform="rotate(-180 950.647 485.384)" fill="#FF8629" fill-opacity="0.3"/>
<rect x="794.553" y="527.955" width="2.36509" height="2.36509" rx="1.18255" transform="rotate(-180 794.553 527.955)" fill="#FF8629"/>
<rect x="770.9" y="504.305" width="2.36509" height="2.36509" rx="1.18255" transform="rotate(-180 770.9 504.305)" fill="#FF8629"/>
<rect x="600.613" y="480.652" width="2.36509" height="2.36509" rx="1.18255" transform="rotate(-180 600.613 480.652)" fill="#FF8629"/>
<rect x="472.898" y="622.559" width="2.36509" height="2.36509" rx="1.18255" transform="rotate(-180 472.898 622.559)" fill="#FF8629"/>
<rect x="638.455" y="485.383" width="4.73019" height="4.73019" rx="2.36509" transform="rotate(-180 638.455 485.383)" fill="#FF8629"/>
<rect x="766.172" y="461.73" width="4.73019" height="4.73019" rx="2.36509" transform="rotate(-180 766.172 461.73)" fill="#FF8629"/>
<rect x="681.025" y="603.638" width="4.73019" height="4.73019" rx="2.36509" transform="rotate(-180 681.025 603.638)" fill="#FF8629"/>
<rect x="737.789" y="518.495" width="4.73019" height="4.73019" rx="2.36509" transform="rotate(-180 737.789 518.495)" fill="#FF8629"/>
<rect x="846.584" y="504.305" width="4.73019" height="4.73019" rx="2.36509" transform="rotate(-180 846.584 504.305)" fill="#FF8629"/>
<rect x="789.822" y="579.987" width="4.73019" height="4.73019" rx="2.36509" transform="rotate(-180 789.822 579.987)" fill="#FF8629"/>
<rect x="926.998" y="636.749" width="4.73019" height="4.73019" rx="2.36509" transform="rotate(-180 926.998 636.749)" fill="#FF8629"/>
<rect x="482.357" y="546.877" width="4.73019" height="4.73019" rx="2.36509" transform="rotate(-180 482.357 546.877)" fill="#FF8629"/>
<rect x="780.361" y="494.844" width="2.36509" height="2.36509" rx="1.18255" transform="rotate(-180 780.361 494.844)" fill="#FF8629"/>
<rect x="657.377" y="546.876" width="2.36509" height="2.36509" rx="1.18255" transform="rotate(-180 657.377 546.876)" fill="#FF8629"/>
<rect x="638.455" y="518.495" width="2.36509" height="2.36509" rx="1.18255" transform="rotate(-180 638.455 518.495)" fill="#FF8629"/>
<rect x="652.646" y="509.034" width="2.36509" height="2.36509" rx="1.18255" transform="rotate(-180 652.646 509.034)" fill="#FF8629"/>
<rect x="737.789" y="579.987" width="2.36509" height="2.36509" rx="1.18255" transform="rotate(-180 737.789 579.987)" fill="#FF8629"/>
<rect x="610.074" y="565.795" width="2.36509" height="2.36509" rx="1.18255" transform="rotate(-180 610.074 565.795)" fill="#FF8629"/>
<rect x="808.742" y="461.73" width="2.36509" height="2.36509" rx="1.18255" transform="rotate(-180 808.742 461.73)" fill="#FF8629"/>
<rect x="903.346" y="532.684" width="2.36509" height="2.36509" rx="1.18255" transform="rotate(-180 903.346 532.684)" fill="#FF8629"/>
<rect x="515.471" y="466.462" width="2.36509" height="2.36509" rx="1.18255" transform="rotate(-180 515.471 466.462)" fill="#FF8629"/>
<rect x="605.344" y="622.559" width="2.36509" height="2.36509" rx="1.18255" transform="rotate(-180 605.344 622.559)" fill="#FF8629"/>
</g>
</g>
<path style="mix-blend-mode:screen" d="M807.093 648.255C856.825 598.522 856.825 517.889 807.093 468.157C757.36 418.424 676.727 418.424 626.994 468.157C577.262 517.889 577.262 598.522 626.994 648.255C676.727 697.988 757.36 697.988 807.093 648.255Z" fill="url(#paint0_radial_5196_385)"/>
<path style="mix-blend-mode:hard-light" opacity="0.52" d="M864.756 710.809C944.884 630.681 944.884 500.769 864.756 420.642C784.629 340.514 654.717 340.514 574.589 420.642C494.462 500.769 494.462 630.681 574.589 710.809C654.717 790.936 784.629 790.936 864.756 710.809Z" fill="url(#paint1_radial_5196_385)"/>
<path style="mix-blend-mode:screen" d="M566.968 413.172C574.479 406.966 630.609 464.962 692.361 542.747C754.112 620.51 798.053 688.604 790.565 694.81C783.054 701.017 726.924 643.021 665.173 565.235C603.421 487.45 559.457 419.379 566.968 413.15V413.172Z" fill="url(#paint2_radial_5196_385)"/>
<path style="mix-blend-mode:screen" d="M780.264 681.476C777.521 683.815 728.97 628.764 671.85 558.512C614.731 488.26 570.655 429.432 573.399 427.116C576.142 424.777 624.693 479.827 681.79 550.079C738.909 620.331 782.985 679.16 780.242 681.498L780.264 681.476Z" fill="url(#paint3_radial_5196_385)"/>
<path style="mix-blend-mode:screen" d="M651.049 424.822C653.321 424.169 673.29 479.737 695.643 548.954C717.996 618.15 734.277 674.774 732.006 675.426C729.734 676.078 709.765 620.511 687.412 551.316C665.059 482.121 648.778 425.474 651.049 424.844V424.822Z" fill="url(#paint4_radial_5196_385)"/>
<path style="mix-blend-mode:screen" d="M552.125 519.698C553.294 517.134 621.702 545.536 704.952 583.136C788.18 620.736 854.721 653.321 853.552 655.907C852.383 658.47 783.975 630.068 700.747 592.469C617.52 554.846 550.978 522.284 552.147 519.698H552.125Z" fill="url(#paint5_radial_5196_385)"/>
<path style="mix-blend-mode:screen" d="M552.104 683.251C549.855 680.35 628.495 622.466 727.756 553.969C826.995 485.471 909.278 432.287 911.527 435.188C913.776 438.089 835.136 495.972 735.874 564.47C636.613 632.968 554.33 686.152 552.104 683.251Z" fill="url(#paint6_radial_5196_385)"/>
<path style="mix-blend-mode:screen" d="M55.9998 568.249C55.9998 551.203 353.132 537.373 719.684 537.373C1086.24 537.373 1383.34 551.203 1383.34 568.249C1383.34 585.295 1086.21 599.125 719.684 599.125C353.154 599.125 55.9998 585.295 55.9998 568.249Z" fill="url(#paint7_radial_5196_385)"/>
<path style="mix-blend-mode:screen" d="M702.571 664.519C706.52 664.519 709.722 608.258 709.722 538.857C709.722 469.456 706.52 413.195 702.571 413.195C698.622 413.195 695.42 469.456 695.42 538.857C695.42 608.258 698.622 664.519 702.571 664.519Z" fill="url(#paint8_radial_5196_385)"/>
<path style="mix-blend-mode:screen" d="M702.572 607.985C704.745 607.985 706.507 577.035 706.507 538.857C706.507 500.679 704.745 469.729 702.572 469.729C700.399 469.729 698.637 500.679 698.637 538.857C698.637 577.035 700.399 607.985 702.572 607.985Z" fill="url(#paint9_radial_5196_385)"/>
<path style="mix-blend-mode:screen" d="M702.571 574.275C703.689 574.275 704.595 558.418 704.595 538.857C704.595 519.296 703.689 503.439 702.571 503.439C701.453 503.439 700.547 519.296 700.547 538.857C700.547 558.418 701.453 574.275 702.571 574.275Z" fill="url(#paint10_radial_5196_385)"/>
<path style="mix-blend-mode:screen" d="M800.099 372.514C803.157 373.774 771.606 452.818 729.644 549.044C687.682 645.269 651.162 722.245 648.103 720.986C645.045 719.727 676.595 640.682 718.558 544.456C760.52 448.231 797.04 371.232 800.099 372.492V372.514Z" fill="url(#paint11_radial_5196_385)"/>
<path style="mix-blend-mode:screen" d="M512.862 628.471C512.278 625.705 597.372 605.152 702.93 582.551C808.488 559.951 894.526 543.872 895.111 546.638C895.695 549.404 810.624 569.958 705.066 592.558C599.508 615.159 513.469 631.237 512.862 628.471Z" fill="url(#paint12_radial_5196_385)"/>
<path style="mix-blend-mode:screen" d="M513.473 543.872C514.102 541.128 599.916 558.444 705.137 582.573C810.357 606.703 895.136 628.494 894.507 631.26C893.877 634.003 808.063 616.687 702.865 592.558C597.645 568.428 512.865 546.638 513.495 543.872H513.473Z" fill="url(#paint13_radial_5196_385)"/>
<path style="mix-blend-mode:screen" d="M709.989 574.164C608.681 574.164 526.578 570.408 526.578 565.798C526.578 561.188 608.704 557.433 709.989 557.433C811.274 557.433 893.4 561.188 893.4 565.798C893.4 570.408 811.274 574.164 709.989 574.164Z" fill="url(#paint14_radial_5196_385)"/>
<path style="mix-blend-mode:screen" d="M709.987 570.408C765.714 570.408 810.89 568.344 810.89 565.798C810.89 563.252 765.714 561.188 709.987 561.188C654.26 561.188 609.084 563.252 609.084 565.798C609.084 568.344 654.26 570.408 709.987 570.408Z" fill="url(#paint15_radial_5196_385)"/>
<path style="mix-blend-mode:screen" d="M709.989 568.159C681.429 568.159 658.289 567.102 658.289 565.798C658.289 564.493 681.429 563.436 709.989 563.436C738.548 563.436 761.688 564.493 761.688 565.798C761.688 567.102 738.548 568.159 709.989 568.159Z" fill="url(#paint16_radial_5196_385)"/>
<path style="mix-blend-mode:screen" d="M703.965 357.111C716.58 357.111 726.835 440.406 726.835 543.153C726.835 645.899 716.603 729.194 703.965 729.194C691.327 729.194 681.117 645.899 681.117 543.153C681.117 440.406 691.349 357.111 703.965 357.111Z" fill="url(#paint17_radial_5196_385)"/>
<path style="mix-blend-mode:screen" d="M633.444 406.876C641.787 403.84 675.002 465.974 707.609 545.604C740.217 625.256 759.894 692.269 751.551 695.283C743.208 698.319 709.993 636.185 677.386 556.555C644.756 476.903 625.079 409.89 633.422 406.854L633.444 406.876Z" fill="url(#paint18_radial_5196_385)"/>
<path style="mix-blend-mode:screen" d="M827.918 381.936C837.206 387.379 798.662 466.041 741.857 557.589C685.053 649.16 631.465 718.962 622.2 713.497C612.935 708.055 651.456 629.415 708.261 537.845C765.065 446.274 818.653 376.472 827.941 381.914L827.918 381.936Z" fill="url(#paint19_radial_5196_385)"/>
<path style="mix-blend-mode:screen" d="M904.039 446.41C918.386 467.009 852.902 531.526 757.778 590.512C662.677 649.498 573.94 680.598 559.615 659.999C545.29 639.4 610.752 574.883 705.876 515.897C801 456.912 889.714 425.811 904.061 446.41H904.039Z" fill="url(#paint20_radial_5196_385)"/>
<path style="mix-blend-mode:screen" d="M826.616 668.994C815.304 691.392 727.422 664.407 630.342 608.727C533.262 553.047 463.752 489.721 475.086 467.323C486.397 444.925 574.28 471.911 671.36 527.613C768.44 583.316 837.949 646.619 826.638 669.017L826.616 668.994Z" fill="url(#paint21_radial_5196_385)"/>
<path style="mix-blend-mode:screen" d="M938.895 619.588C933.925 649.497 824.229 656.199 693.845 634.565C563.483 612.91 461.838 571.105 466.807 541.196C471.777 511.287 581.473 504.586 711.835 526.241C842.197 547.897 943.842 589.68 938.895 619.588Z" fill="url(#paint22_radial_5196_385)"/>
<path style="mix-blend-mode:screen" d="M783.749 572.498C588.263 572.498 429.791 568.72 429.791 564.088C429.791 559.455 588.263 555.677 783.749 555.677C979.236 555.677 1137.71 559.455 1137.71 564.088C1137.71 568.72 979.236 572.498 783.749 572.498Z" fill="url(#paint23_radial_5196_385)"/>
<path style="mix-blend-mode:screen" d="M783.751 568.721C676.214 568.721 589.029 566.652 589.029 564.089C589.029 561.525 676.214 559.456 783.751 559.456C891.288 559.456 978.474 561.525 978.474 564.089C978.474 566.652 891.288 568.721 783.751 568.721Z" fill="url(#paint24_radial_5196_385)"/>
<path style="mix-blend-mode:screen" d="M783.75 566.45C728.655 566.45 683.994 565.393 683.994 564.088C683.994 562.784 728.655 561.727 783.75 561.727C838.845 561.727 883.506 562.784 883.506 564.088C883.506 565.393 838.845 566.45 783.75 566.45Z" fill="url(#paint25_radial_5196_385)"/>
<path style="mix-blend-mode:screen" d="M1295.71 565.73C1295.71 580.594 1061.09 592.67 771.653 592.67C482.212 592.67 247.619 580.617 247.619 565.73C247.619 550.843 482.235 538.79 771.653 538.79C1061.07 538.79 1295.71 550.843 1295.71 565.73Z" fill="url(#paint26_radial_5196_385)"/>
<path style="mix-blend-mode:screen" d="M768.39 579.438C775.924 547.91 756.474 516.244 724.946 508.71C693.418 501.176 661.752 520.626 654.218 552.154C646.684 583.682 666.134 615.347 697.662 622.882C729.19 630.416 760.856 610.965 768.39 579.438Z" fill="url(#paint27_radial_5196_385)"/>
<path style="mix-blend-mode:color-dodge" opacity="0.31" d="M858.165 636.759C858.165 719.986 790.657 787.495 707.384 787.495C624.112 787.495 556.648 719.986 556.648 636.759C556.648 553.531 624.157 486 707.384 486C790.612 486 858.165 553.486 858.165 636.759Z" fill="url(#paint28_radial_5196_385)"/>
<path style="mix-blend-mode:screen" d="M1156 594.5C1156 648.903 958.803 693 715.5 693C472.197 693 275 648.903 275 594.5C275 540.097 472.197 496 715.5 496C958.803 496 1156 540.097 1156 594.5Z" fill="url(#paint29_radial_5196_385)"/>
<defs>
<filter id="filter0_f_5196_385" x="-617.568" y="0.447876" width="2632.59" height="1195.62" filterUnits="userSpaceOnUse" color-interpolation-filters="sRGB">
<feFlood flood-opacity="0" result="BackgroundImageFix"/>
<feBlend mode="normal" in="SourceGraphic" in2="BackgroundImageFix" result="shape"/>
<feGaussianBlur stdDeviation="125" result="effect1_foregroundBlur_5196_385"/>
</filter>
<filter id="filter1_f_5196_385" x="1192.6" y="301.6" width="65.8" height="65.8" filterUnits="userSpaceOnUse" color-interpolation-filters="sRGB">
<feFlood flood-opacity="0" result="BackgroundImageFix"/>
<feBlend mode="normal" in="SourceGraphic" in2="BackgroundImageFix" result="shape"/>
<feGaussianBlur stdDeviation="5.7" result="effect1_foregroundBlur_5196_385"/>
</filter>
<filter id="filter2_f_5196_385" x="-56.6" y="453.4" width="117.2" height="117.2" filterUnits="userSpaceOnUse" color-interpolation-filters="sRGB">
<feFlood flood-opacity="0" result="BackgroundImageFix"/>
<feBlend mode="normal" in="SourceGraphic" in2="BackgroundImageFix" result="shape"/>
<feGaussianBlur stdDeviation="7.8" result="effect1_foregroundBlur_5196_385"/>
</filter>
<filter id="filter3_f_5196_385" x="202.4" y="188.4" width="75.2" height="75.2" filterUnits="userSpaceOnUse" color-interpolation-filters="sRGB">
<feFlood flood-opacity="0" result="BackgroundImageFix"/>
<feBlend mode="normal" in="SourceGraphic" in2="BackgroundImageFix" result="shape"/>
<feGaussianBlur stdDeviation="4.8" result="effect1_foregroundBlur_5196_385"/>
</filter>
<filter id="filter4_f_5196_385" x="499.4" y="286.4" width="26.2" height="26.2" filterUnits="userSpaceOnUse" color-interpolation-filters="sRGB">
<feFlood flood-opacity="0" result="BackgroundImageFix"/>
<feBlend mode="normal" in="SourceGraphic" in2="BackgroundImageFix" result="shape"/>
<feGaussianBlur stdDeviation="3.3" result="effect1_foregroundBlur_5196_385"/>
</filter>
<radialGradient id="paint0_radial_5196_385" cx="0" cy="0" r="1" gradientUnits="userSpaceOnUse" gradientTransform="translate(717.063 558.205) scale(127.349)">
<stop stop-color="#FA902C"/>
<stop offset="0.1" stop-color="#F48D2B" stop-opacity="0.98"/>
<stop offset="0.23" stop-color="#E58428" stop-opacity="0.92"/>
<stop offset="0.36" stop-color="#CD7624" stop-opacity="0.82"/>
<stop offset="0.51" stop-color="#AB621E" stop-opacity="0.68"/>
<stop offset="0.66" stop-color="#7E4916" stop-opacity="0.51"/>
<stop offset="0.82" stop-color="#48290C" stop-opacity="0.29"/>
<stop offset="0.98" stop-color="#0A0501" stop-opacity="0.04"/>
<stop offset="1" stop-opacity="0"/>
</radialGradient>
<radialGradient id="paint1_radial_5196_385" cx="0" cy="0" r="1" gradientUnits="userSpaceOnUse" gradientTransform="translate(719.684 565.73) scale(205.179)">
<stop stop-color="#FABA2C"/>
<stop offset="0.07" stop-color="#F5B52A" stop-opacity="0.96"/>
<stop offset="0.18" stop-color="#E8A827" stop-opacity="0.83"/>
<stop offset="0.34" stop-color="#D29421" stop-opacity="0.64"/>
<stop offset="0.52" stop-color="#B5781A" stop-opacity="0.37"/>
<stop offset="0.73" stop-color="#905510" stop-opacity="0.03"/>
<stop offset="0.75" stop-color="#8D5210" stop-opacity="0"/>
</radialGradient>
<radialGradient id="paint2_radial_5196_385" cx="0" cy="0" r="1" gradientUnits="userSpaceOnUse" gradientTransform="translate(495.475 675.486) rotate(-128.45) scale(181.374 20.1527)">
<stop stop-color="#FFA200"/>
<stop offset="0.01" stop-color="#FF8F00"/>
<stop offset="0.03" stop-color="#FF6900"/>
<stop offset="0.05" stop-color="#F86600"/>
<stop offset="0.21" stop-color="#B74B00"/>
<stop offset="0.36" stop-color="#7F3400"/>
<stop offset="0.51" stop-color="#512100"/>
<stop offset="0.65" stop-color="#2E1300"/>
<stop offset="0.78" stop-color="#140800"/>
<stop offset="0.9" stop-color="#050200"/>
<stop offset="1"/>
</radialGradient>
<radialGradient id="paint3_radial_5196_385" cx="0" cy="0" r="1" gradientUnits="userSpaceOnUse" gradientTransform="translate(656.029 544.426) rotate(50.88) scale(165.656 4.73302)">
<stop stop-color="#FFA200"/>
<stop offset="0.01" stop-color="#FF8F00"/>
<stop offset="0.03" stop-color="#FF6900"/>
<stop offset="0.07" stop-color="#D85900"/>
<stop offset="0.13" stop-color="#AB4600"/>
<stop offset="0.19" stop-color="#823500"/>
<stop offset="0.25" stop-color="#5F2700"/>
<stop offset="0.33" stop-color="#411A00"/>
<stop offset="0.4" stop-color="#291100"/>
<stop offset="0.49" stop-color="#160900"/>
<stop offset="0.59" stop-color="#090400"/>
<stop offset="0.73" stop-color="#020000"/>
<stop offset="1"/>
</radialGradient>
<radialGradient id="paint4_radial_5196_385" cx="0" cy="0" r="1" gradientUnits="userSpaceOnUse" gradientTransform="translate(912.286 497.727) rotate(-107.91) scale(130.475 3.34552)">
<stop stop-color="#FFA200"/>
<stop offset="0.01" stop-color="#FF8F00"/>
<stop offset="0.03" stop-color="#FF6900"/>
<stop offset="0.07" stop-color="#D85900"/>
<stop offset="0.13" stop-color="#AB4600"/>
<stop offset="0.19" stop-color="#823500"/>
<stop offset="0.25" stop-color="#5F2700"/>
<stop offset="0.33" stop-color="#411A00"/>
<stop offset="0.4" stop-color="#291100"/>
<stop offset="0.49" stop-color="#160900"/>
<stop offset="0.59" stop-color="#090400"/>
<stop offset="0.73" stop-color="#020000"/>
<stop offset="1"/>
</radialGradient>
<radialGradient id="paint5_radial_5196_385" cx="0" cy="0" r="1" gradientUnits="userSpaceOnUse" gradientTransform="translate(637.697 777.171) rotate(-155.68) scale(166.804 6.67214)">
<stop stop-color="#FFA200"/>
<stop offset="0.01" stop-color="#FF8F00"/>
<stop offset="0.03" stop-color="#FF6900"/>
<stop offset="0.07" stop-color="#D85900"/>
<stop offset="0.13" stop-color="#AB4600"/>
<stop offset="0.19" stop-color="#823500"/>
<stop offset="0.25" stop-color="#5F2700"/>
<stop offset="0.33" stop-color="#411A00"/>
<stop offset="0.4" stop-color="#291100"/>
<stop offset="0.49" stop-color="#160900"/>
<stop offset="0.59" stop-color="#090400"/>
<stop offset="0.73" stop-color="#020000"/>
<stop offset="1"/>
</radialGradient>
<radialGradient id="paint6_radial_5196_385" cx="0" cy="0" r="1" gradientUnits="userSpaceOnUse" gradientTransform="translate(769.932 580.881) rotate(145.39) scale(219.584 5.2282)">
<stop stop-color="#FFA200"/>
<stop offset="0.01" stop-color="#FF8F00"/>
<stop offset="0.03" stop-color="#FF6900"/>
<stop offset="0.07" stop-color="#D85900"/>
<stop offset="0.13" stop-color="#AB4600"/>
<stop offset="0.19" stop-color="#823500"/>
<stop offset="0.25" stop-color="#5F2700"/>
<stop offset="0.33" stop-color="#411A00"/>
<stop offset="0.4" stop-color="#291100"/>
<stop offset="0.49" stop-color="#160900"/>
<stop offset="0.59" stop-color="#090400"/>
<stop offset="0.73" stop-color="#020000"/>
<stop offset="1"/>
</radialGradient>
<radialGradient id="paint7_radial_5196_385" cx="0" cy="0" r="1" gradientUnits="userSpaceOnUse" gradientTransform="translate(724.599 562.386) rotate(180) scale(664.343 30.7566)">
<stop stop-color="#FFA200"/>
<stop offset="0.01" stop-color="#FF8F00"/>
<stop offset="0.03" stop-color="#FF6900"/>
<stop offset="0.05" stop-color="#F86600" stop-opacity="0.98"/>
<stop offset="0.21" stop-color="#B74B00" stop-opacity="0.75"/>
<stop offset="0.36" stop-color="#7F3400" stop-opacity="0.55"/>
<stop offset="0.51" stop-color="#512100" stop-opacity="0.39"/>
<stop offset="0.65" stop-color="#2E1300" stop-opacity="0.26"/>
<stop offset="0.78" stop-color="#140800" stop-opacity="0.17"/>
<stop offset="0.9" stop-color="#050200" stop-opacity="0.12"/>
<stop offset="1" stop-opacity="0.1"/>
</radialGradient>
<radialGradient id="paint8_radial_5196_385" cx="0" cy="0" r="1" gradientUnits="userSpaceOnUse" gradientTransform="translate(702.571 541.211) scale(7.28608 120.584)">
<stop stop-color="#BD1B04"/>
<stop offset="0.48" stop-color="#650E02"/>
<stop offset="1"/>
</radialGradient>
<radialGradient id="paint9_radial_5196_385" cx="0" cy="0" r="1" gradientUnits="userSpaceOnUse" gradientTransform="translate(702.572 538.528) scale(3.48562 67.7604)">
<stop stop-color="#F2BA0A"/>
<stop offset="0.25" stop-color="#A78006"/>
<stop offset="0.52" stop-color="#604A03"/>
<stop offset="0.74" stop-color="#2C2201"/>
<stop offset="0.91" stop-color="#0C0900"/>
<stop offset="1"/>
</radialGradient>
<radialGradient id="paint10_radial_5196_385" cx="0" cy="0" r="1" gradientUnits="userSpaceOnUse" gradientTransform="translate(702.571 539.963) scale(2.11388 34.4559)">
<stop stop-color="white"/>
<stop offset="0.12" stop-color="#C7C7C7"/>
<stop offset="0.24" stop-color="#939393"/>
<stop offset="0.37" stop-color="#666666"/>
<stop offset="0.5" stop-color="#414141"/>
<stop offset="0.63" stop-color="#242424"/>
<stop offset="0.75" stop-color="#101010"/>
<stop offset="0.88" stop-color="#040404"/>
<stop offset="1"/>
</radialGradient>
<radialGradient id="paint11_radial_5196_385" cx="0" cy="0" r="1" gradientUnits="userSpaceOnUse" gradientTransform="translate(964.125 608.145) rotate(-66.44) scale(189.249 4.73122)">
<stop stop-color="#FFA200"/>
<stop offset="0.01" stop-color="#FF8F00"/>
<stop offset="0.03" stop-color="#FF6900"/>
<stop offset="0.07" stop-color="#D85900"/>
<stop offset="0.13" stop-color="#AB4600"/>
<stop offset="0.19" stop-color="#823500"/>
<stop offset="0.25" stop-color="#5F2700"/>
<stop offset="0.33" stop-color="#411A00"/>
<stop offset="0.4" stop-color="#291100"/>
<stop offset="0.49" stop-color="#160900"/>
<stop offset="0.59" stop-color="#090400"/>
<stop offset="0.73" stop-color="#020000"/>
<stop offset="1"/>
</radialGradient>
<radialGradient id="paint12_radial_5196_385" cx="0" cy="0" r="1" gradientUnits="userSpaceOnUse" gradientTransform="translate(736.993 640.859) rotate(167.92) scale(196.934 6.67574)">
<stop stop-color="#FFA200"/>
<stop offset="0.01" stop-color="#FF8F00"/>
<stop offset="0.03" stop-color="#FF6900"/>
<stop offset="0.07" stop-color="#D85900"/>
<stop offset="0.13" stop-color="#AB4600"/>
<stop offset="0.19" stop-color="#823500"/>
<stop offset="0.25" stop-color="#5F2700"/>
<stop offset="0.33" stop-color="#411A00"/>
<stop offset="0.4" stop-color="#291100"/>
<stop offset="0.49" stop-color="#160900"/>
<stop offset="0.59" stop-color="#090400"/>
<stop offset="0.73" stop-color="#020000"/>
<stop offset="1"/>
</radialGradient>
<radialGradient id="paint13_radial_5196_385" cx="0" cy="0" r="1" gradientUnits="userSpaceOnUse" gradientTransform="translate(688.395 745.616) rotate(-167.08) scale(197.293 6.68788)">
<stop stop-color="#FFA200"/>
<stop offset="0.01" stop-color="#FF8F00"/>
<stop offset="0.03" stop-color="#FF6900"/>
<stop offset="0.07" stop-color="#D85900"/>
<stop offset="0.13" stop-color="#AB4600"/>
<stop offset="0.19" stop-color="#823500"/>
<stop offset="0.25" stop-color="#5F2700"/>
<stop offset="0.33" stop-color="#411A00"/>
<stop offset="0.4" stop-color="#291100"/>
<stop offset="0.49" stop-color="#160900"/>
<stop offset="0.59" stop-color="#090400"/>
<stop offset="0.73" stop-color="#020000"/>
<stop offset="1"/>
</radialGradient>
<radialGradient id="paint14_radial_5196_385" cx="0" cy="0" r="1" gradientUnits="userSpaceOnUse" gradientTransform="translate(712.847 565.798) rotate(90) scale(8.54538 176.206)">
<stop stop-color="#BD1B04"/>
<stop offset="0.48" stop-color="#650E02"/>
<stop offset="1"/>
</radialGradient>
<radialGradient id="paint15_radial_5196_385" cx="0" cy="0" r="1" gradientUnits="userSpaceOnUse" gradientTransform="translate(711.385 565.798) rotate(90) scale(4.07029 98.6234)">
<stop stop-color="#F2BA0A"/>
<stop offset="0.25" stop-color="#A78006"/>
<stop offset="0.52" stop-color="#604A03"/>
<stop offset="0.74" stop-color="#2C2201"/>
<stop offset="0.91" stop-color="#0C0900"/>
<stop offset="1"/>
</radialGradient>
<radialGradient id="paint16_radial_5196_385" cx="0" cy="0" r="1" gradientUnits="userSpaceOnUse" gradientTransform="translate(713.779 565.798) rotate(90) scale(2.47365 50.2401)">
<stop stop-color="white"/>
<stop offset="0.12" stop-color="#C7C7C7"/>
<stop offset="0.24" stop-color="#939393"/>
<stop offset="0.37" stop-color="#666666"/>
<stop offset="0.5" stop-color="#414141"/>
<stop offset="0.63" stop-color="#242424"/>
<stop offset="0.75" stop-color="#101010"/>
<stop offset="0.88" stop-color="#040404"/>
<stop offset="1"/>
</radialGradient>
<radialGradient id="paint17_radial_5196_385" cx="0" cy="0" r="1" gradientUnits="userSpaceOnUse" gradientTransform="translate(713.333 550.567) rotate(-90) scale(186.715 22.7701)">
<stop stop-color="#FFA200"/>
<stop offset="0.01" stop-color="#FF8F00"/>
<stop offset="0.03" stop-color="#FF6900"/>
<stop offset="0.05" stop-color="#F86600"/>
<stop offset="0.21" stop-color="#B74B00"/>
<stop offset="0.36" stop-color="#7F3400"/>
<stop offset="0.51" stop-color="#512100"/>
<stop offset="0.65" stop-color="#2E1300"/>
<stop offset="0.78" stop-color="#140800"/>
<stop offset="0.9" stop-color="#050200"/>
<stop offset="1"/>
</radialGradient>
<radialGradient id="paint18_radial_5196_385" cx="0" cy="0" r="1" gradientUnits="userSpaceOnUse" gradientTransform="translate(808.5 604.436) rotate(-112.27) scale(157.174 15.334)">
<stop stop-color="#FFA200"/>
<stop offset="0.01" stop-color="#FF8F00"/>
<stop offset="0.03" stop-color="#FF6900"/>
<stop offset="0.05" stop-color="#F86600"/>
<stop offset="0.21" stop-color="#B74B00"/>
<stop offset="0.36" stop-color="#7F3400"/>
<stop offset="0.51" stop-color="#512100"/>
<stop offset="0.65" stop-color="#2E1300"/>
<stop offset="0.78" stop-color="#140800"/>
<stop offset="0.9" stop-color="#050200"/>
<stop offset="1"/>
</radialGradient>
<radialGradient id="paint19_radial_5196_385" cx="0" cy="0" r="1" gradientUnits="userSpaceOnUse" gradientTransform="translate(795.621 567.4) rotate(-58.18) scale(197.464 18.8061)">
<stop stop-color="#FFA200"/>
<stop offset="0.01" stop-color="#FF8F00"/>
<stop offset="0.03" stop-color="#FF6900"/>
<stop offset="0.05" stop-color="#F86600"/>
<stop offset="0.21" stop-color="#B74B00"/>
<stop offset="0.36" stop-color="#7F3400"/>
<stop offset="0.51" stop-color="#512100"/>
<stop offset="0.65" stop-color="#2E1300"/>
<stop offset="0.78" stop-color="#140800"/>
<stop offset="0.9" stop-color="#050200"/>
<stop offset="1"/>
</radialGradient>
<radialGradient id="paint20_radial_5196_385" cx="0" cy="0" r="1" gradientUnits="userSpaceOnUse" gradientTransform="translate(832.996 338.217) rotate(-31.81) scale(202.06 46.9906)">
<stop stop-color="#FFA200"/>
<stop offset="0.01" stop-color="#FF8F00"/>
<stop offset="0.03" stop-color="#FF6900"/>
<stop offset="0.05" stop-color="#F86600"/>
<stop offset="0.21" stop-color="#B74B00"/>
<stop offset="0.36" stop-color="#7F3400"/>
<stop offset="0.51" stop-color="#512100"/>
<stop offset="0.65" stop-color="#2E1300"/>
<stop offset="0.78" stop-color="#140800"/>
<stop offset="0.9" stop-color="#050200"/>
<stop offset="1"/>
</radialGradient>
<radialGradient id="paint21_radial_5196_385" cx="0" cy="0" r="1" gradientUnits="userSpaceOnUse" gradientTransform="translate(854.756 559.344) rotate(29.84) scale(202.079 46.9951)">
<stop stop-color="#FFA200"/>
<stop offset="0.01" stop-color="#FF8F00"/>
<stop offset="0.03" stop-color="#FF6900"/>
<stop offset="0.05" stop-color="#F86600"/>
<stop offset="0.21" stop-color="#B74B00"/>
<stop offset="0.36" stop-color="#7F3400"/>
<stop offset="0.51" stop-color="#512100"/>
<stop offset="0.65" stop-color="#2E1300"/>
<stop offset="0.78" stop-color="#140800"/>
<stop offset="0.9" stop-color="#050200"/>
<stop offset="1"/>
</radialGradient>
<radialGradient id="paint22_radial_5196_385" cx="0" cy="0" r="1" gradientUnits="userSpaceOnUse" gradientTransform="translate(715.255 480.513) rotate(9.43) scale(239.629 56.3833)">
<stop stop-color="#FFA200"/>
<stop offset="0.01" stop-color="#FF8F00"/>
<stop offset="0.03" stop-color="#FF6900"/>
<stop offset="0.05" stop-color="#F86600"/>
<stop offset="0.21" stop-color="#B74B00"/>
<stop offset="0.36" stop-color="#7F3400"/>
<stop offset="0.51" stop-color="#512100"/>
<stop offset="0.65" stop-color="#2E1300"/>
<stop offset="0.78" stop-color="#140800"/>
<stop offset="0.9" stop-color="#050200"/>
<stop offset="1"/>
</radialGradient>
<radialGradient id="paint23_radial_5196_385" cx="0" cy="0" r="1" gradientUnits="userSpaceOnUse" gradientTransform="translate(783.772 564.065) rotate(90) scale(8.59037 339.835)">
<stop stop-color="#BD1B04"/>
<stop offset="0.48" stop-color="#650E02"/>
<stop offset="1"/>
</radialGradient>
<radialGradient id="paint24_radial_5196_385" cx="0" cy="0" r="1" gradientUnits="userSpaceOnUse" gradientTransform="translate(784.898 564.066) rotate(90) scale(4.11527 191.278)">
<stop stop-color="#F2BA0A"/>
<stop offset="0.25" stop-color="#A78006"/>
<stop offset="0.52" stop-color="#604A03"/>
<stop offset="0.74" stop-color="#2C2201"/>
<stop offset="0.91" stop-color="#0C0900"/>
<stop offset="1"/>
</radialGradient>
<radialGradient id="paint25_radial_5196_385" cx="0" cy="0" r="1" gradientUnits="userSpaceOnUse" gradientTransform="translate(781.574 564.066) rotate(90) scale(2.47367 96.3986)">
<stop stop-color="white"/>
<stop offset="0.12" stop-color="#C7C7C7"/>
<stop offset="0.24" stop-color="#939393"/>
<stop offset="0.37" stop-color="#666666"/>
<stop offset="0.5" stop-color="#414141"/>
<stop offset="0.63" stop-color="#242424"/>
<stop offset="0.75" stop-color="#101010"/>
<stop offset="0.88" stop-color="#040404"/>
<stop offset="1"/>
</radialGradient>
<radialGradient id="paint26_radial_5196_385" cx="0" cy="0" r="1" gradientUnits="userSpaceOnUse" gradientTransform="translate(746.657 574.115) scale(525.807 26.8269)">
<stop stop-color="#FFA200"/>
<stop offset="0.01" stop-color="#FF8F00"/>
<stop offset="0.03" stop-color="#FF6900"/>
<stop offset="0.05" stop-color="#F86600"/>
<stop offset="0.21" stop-color="#B74B00"/>
<stop offset="0.36" stop-color="#7F3400"/>
<stop offset="0.51" stop-color="#512100"/>
<stop offset="0.65" stop-color="#2E1300"/>
<stop offset="0.78" stop-color="#140800"/>
<stop offset="0.9" stop-color="#050200"/>
<stop offset="1"/>
</radialGradient>
<radialGradient id="paint27_radial_5196_385" cx="0" cy="0" r="1" gradientUnits="userSpaceOnUse" gradientTransform="translate(711.317 565.739) scale(58.6933 58.6933)">
<stop stop-color="white"/>
<stop offset="0.1" stop-color="#F9F9F9" stop-opacity="0.98"/>
<stop offset="0.23" stop-color="#EAEAEA" stop-opacity="0.92"/>
<stop offset="0.36" stop-color="#D2D2D2" stop-opacity="0.83"/>
<stop offset="0.5" stop-color="#B0B0B0" stop-opacity="0.69"/>
<stop offset="0.65" stop-color="#838383" stop-opacity="0.52"/>
<stop offset="0.81" stop-color="#4D4D4D" stop-opacity="0.3"/>
<stop offset="0.96" stop-color="#0F0F0F" stop-opacity="0.06"/>
<stop offset="1" stop-opacity="0"/>
</radialGradient>
<radialGradient id="paint28_radial_5196_385" cx="0" cy="0" r="1" gradientUnits="userSpaceOnUse" gradientTransform="translate(707.407 636.736) scale(150.758 150.759)">
<stop/>
<stop offset="0.7" stop-color="#0C0301"/>
<stop offset="0.72" stop-color="#110501"/>
<stop offset="0.73" stop-color="#220D02"/>
<stop offset="0.76" stop-color="#451D03"/>
<stop offset="0.78" stop-color="#2C1302"/>
<stop offset="0.81" stop-color="#180A01"/>
<stop offset="0.84" stop-color="#0A0400"/>
<stop offset="0.87" stop-color="#020100"/>
<stop offset="0.94"/>
</radialGradient>
<radialGradient id="paint29_radial_5196_385" cx="0" cy="0" r="1" gradientUnits="userSpaceOnUse" gradientTransform="translate(716.07 596.761) scale(441.498 98.7827)">
<stop offset="0.06" stop-color="white"/>
<stop offset="0.08" stop-color="#FFFCF7"/>
<stop offset="0.1" stop-color="#FFF6E1"/>
<stop offset="0.13" stop-color="#FFECBE"/>
<stop offset="0.17" stop-color="#FFDE8D"/>
<stop offset="0.2" stop-color="#FFCD4E"/>
<stop offset="0.25" stop-color="#FFB700"/>
<stop offset="0.28" stop-color="#FFA400"/>
<stop offset="0.33" stop-color="#FF7300"/>
<stop offset="0.35" stop-color="#FF6800"/>
<stop offset="0.39" stop-color="#D35600"/>
<stop offset="0.45" stop-color="#A24200"/>
<stop offset="0.52" stop-color="#763000"/>
<stop offset="0.58" stop-color="#522100"/>
<stop offset="0.65" stop-color="#341500"/>
<stop offset="0.72" stop-color="#1D0B00"/>
<stop offset="0.8" stop-color="#0C0500"/>
<stop offset="0.89" stop-color="#030100"/>
<stop offset="1"/>
</radialGradient>
<clipPath id="clip0_5196_385">
<rect width="1439" height="392" fill="white" transform="translate(1 163)"/>
</clipPath>
<clipPath id="clip1_5196_385">
<rect width="598.907" height="182" fill="white" transform="translate(470.535 457)"/>
</clipPath>
</defs>
</svg>
