<svg width="1440" height="6327" viewBox="0 0 1440 6327" fill="none" xmlns="http://www.w3.org/2000/svg">
<g clip-path="url(#clip0_7_43)">
<rect width="1440" height="6327" fill="#090A0D"/>
<g filter="url(#filter0_f_7_43)">
<path d="M1763.66 885.618C1734.27 995.334 1233.58 956.757 645.433 799.165C57.2916 641.573 -395.66 424.831 -366.209 314.92C-336.759 205.008 163.828 243.975 751.969 401.567C1340.11 559.16 1793.06 775.902 1763.66 885.618Z" fill="#350406" fill-opacity="0.69" style="mix-blend-mode:screen"/>
</g>
<g clip-path="url(#clip1_7_43)">
<g filter="url(#filter1_f_7_43)">
<circle cx="1225.5" cy="336.5" r="21.5" fill="white" fill-opacity="0.31"/>
</g>
<g filter="url(#filter2_f_7_43)">
<circle cx="2" cy="514" r="43" fill="white" fill-opacity="0.11"/>
</g>
<circle cx="1074.5" cy="423.5" r="6.5" fill="white" fill-opacity="0.22"/>
<circle cx="295.5" cy="443.5" r="6.5" fill="white" fill-opacity="0.13"/>
<circle cx="982.5" cy="171.5" r="6.5" fill="white" fill-opacity="0.2"/>
<circle cx="1371" cy="448" r="11" fill="white" fill-opacity="0.16"/>
<circle cx="174.5" cy="495.5" r="4.5" fill="white" fill-opacity="0.31"/>
<circle cx="589" cy="182" r="3" fill="white" fill-opacity="0.37"/>
<circle cx="205" cy="372" r="3" fill="white" fill-opacity="0.31"/>
<circle cx="1121" cy="512" r="3" fill="white" fill-opacity="0.31"/>
<circle cx="453" cy="493" r="3" fill="white" fill-opacity="0.31"/>
<circle cx="1264" cy="199" r="3" fill="white" fill-opacity="0.31"/>
<g filter="url(#filter3_f_7_43)">
<circle cx="240" cy="228" r="28" fill="white" fill-opacity="0.09"/>
</g>
<g filter="url(#filter4_f_7_43)">
<circle cx="512.5" cy="301.5" r="6.5" fill="white" fill-opacity="0.16"/>
</g>
</g>
<g clip-path="url(#clip2_7_43)">
<g opacity="0.54">
<rect x="581.424" y="540.126" width="2.36509" height="2.36509" rx="1.18255" transform="rotate(-180 581.424 540.126)" fill="#FF8629"/>
<rect x="846.314" y="644.19" width="2.36509" height="2.36509" rx="1.18255" transform="rotate(-180 846.314 644.19)" fill="#FF8629" fill-opacity="0.3"/>
<rect x="1063.9" y="525.936" width="2.36509" height="2.36509" rx="1.18255" transform="rotate(-180 1063.9 525.936)" fill="#FF8629" fill-opacity="0.3"/>
<rect x="945.647" y="492.826" width="2.36509" height="2.36509" rx="1.18255" transform="rotate(-180 945.647 492.826)" fill="#FF8629" fill-opacity="0.3"/>
<rect x="789.553" y="535.396" width="2.36509" height="2.36509" rx="1.18255" transform="rotate(-180 789.553 535.396)" fill="#FF8629"/>
<rect x="765.9" y="511.747" width="2.36509" height="2.36509" rx="1.18255" transform="rotate(-180 765.9 511.747)" fill="#FF8629"/>
<rect x="595.613" y="488.093" width="2.36509" height="2.36509" rx="1.18255" transform="rotate(-180 595.613 488.093)" fill="#FF8629"/>
<rect x="467.898" y="630" width="2.36509" height="2.36509" rx="1.18255" transform="rotate(-180 467.898 630)" fill="#FF8629"/>
<rect x="633.455" y="492.825" width="4.73019" height="4.73019" rx="2.36509" transform="rotate(-180 633.455 492.825)" fill="#FF8629"/>
<rect x="761.172" y="469.172" width="4.73019" height="4.73019" rx="2.36509" transform="rotate(-180 761.172 469.172)" fill="#FF8629"/>
<rect x="676.025" y="611.079" width="4.73019" height="4.73019" rx="2.36509" transform="rotate(-180 676.025 611.079)" fill="#FF8629"/>
<rect x="732.789" y="525.936" width="4.73019" height="4.73019" rx="2.36509" transform="rotate(-180 732.789 525.936)" fill="#FF8629"/>
<rect x="841.584" y="511.747" width="4.73019" height="4.73019" rx="2.36509" transform="rotate(-180 841.584 511.747)" fill="#FF8629"/>
<rect x="784.822" y="587.429" width="4.73019" height="4.73019" rx="2.36509" transform="rotate(-180 784.822 587.429)" fill="#FF8629"/>
<rect x="921.998" y="644.19" width="4.73019" height="4.73019" rx="2.36509" transform="rotate(-180 921.998 644.19)" fill="#FF8629"/>
<rect x="477.357" y="554.318" width="4.73019" height="4.73019" rx="2.36509" transform="rotate(-180 477.357 554.318)" fill="#FF8629"/>
<rect x="775.361" y="502.286" width="2.36509" height="2.36509" rx="1.18255" transform="rotate(-180 775.361 502.286)" fill="#FF8629"/>
<rect x="652.377" y="554.318" width="2.36509" height="2.36509" rx="1.18255" transform="rotate(-180 652.377 554.318)" fill="#FF8629"/>
<rect x="633.455" y="525.936" width="2.36509" height="2.36509" rx="1.18255" transform="rotate(-180 633.455 525.936)" fill="#FF8629"/>
<rect x="647.646" y="516.476" width="2.36509" height="2.36509" rx="1.18255" transform="rotate(-180 647.646 516.476)" fill="#FF8629"/>
<rect x="732.789" y="587.429" width="2.36509" height="2.36509" rx="1.18255" transform="rotate(-180 732.789 587.429)" fill="#FF8629"/>
<rect x="605.074" y="573.236" width="2.36509" height="2.36509" rx="1.18255" transform="rotate(-180 605.074 573.236)" fill="#FF8629"/>
<rect x="803.742" y="469.172" width="2.36509" height="2.36509" rx="1.18255" transform="rotate(-180 803.742 469.172)" fill="#FF8629"/>
<rect x="898.346" y="540.126" width="2.36509" height="2.36509" rx="1.18255" transform="rotate(-180 898.346 540.126)" fill="#FF8629"/>
<rect x="510.471" y="473.904" width="2.36509" height="2.36509" rx="1.18255" transform="rotate(-180 510.471 473.904)" fill="#FF8629"/>
<rect x="600.344" y="630" width="2.36509" height="2.36509" rx="1.18255" transform="rotate(-180 600.344 630)" fill="#FF8629"/>
</g>
</g>
<path style="mix-blend-mode:screen" d="M802.093 655.697C851.825 605.964 851.825 525.331 802.093 475.598C752.36 425.866 671.727 425.866 621.994 475.598C572.262 525.331 572.262 605.964 621.994 655.697C671.727 705.429 752.36 705.429 802.093 655.697Z" fill="url(#paint0_radial_7_43)"/>
<path style="mix-blend-mode:hard-light" opacity="0.52" d="M859.756 718.251C939.884 638.123 939.884 508.211 859.756 428.083C779.629 347.956 649.717 347.956 569.589 428.083C489.462 508.211 489.462 638.123 569.589 718.251C649.717 798.378 779.629 798.378 859.756 718.251Z" fill="url(#paint1_radial_7_43)"/>
<path style="mix-blend-mode:screen" d="M561.968 420.614C569.479 414.407 625.609 472.404 687.361 550.189C749.112 627.952 793.053 696.045 785.565 702.252C778.054 708.458 721.924 650.462 660.173 572.677C598.421 494.891 554.457 426.821 561.968 420.592V420.614Z" fill="url(#paint2_radial_7_43)"/>
<path style="mix-blend-mode:screen" d="M775.264 688.917C772.521 691.256 723.97 636.206 666.85 565.954C609.731 495.702 565.655 436.874 568.399 434.557C571.142 432.219 619.693 487.269 676.79 557.521C733.909 627.773 777.985 686.601 775.242 688.94L775.264 688.917Z" fill="url(#paint3_radial_7_43)"/>
<path style="mix-blend-mode:screen" d="M646.049 432.263C648.321 431.611 668.29 487.179 690.643 556.396C712.996 625.591 729.277 682.216 727.006 682.868C724.734 683.52 704.765 627.952 682.412 558.757C660.059 489.562 643.778 432.915 646.049 432.286V432.263Z" fill="url(#paint4_radial_7_43)"/>
<path style="mix-blend-mode:screen" d="M547.125 527.14C548.294 524.576 616.702 552.978 699.952 590.578C783.18 628.177 849.721 660.762 848.552 663.348C847.383 665.912 778.975 637.51 695.747 599.91C612.52 562.288 545.978 529.726 547.147 527.14H547.125Z" fill="url(#paint5_radial_7_43)"/>
<path style="mix-blend-mode:screen" d="M547.104 690.693C544.855 687.792 623.495 629.908 722.756 561.41C821.995 492.912 904.278 439.728 906.527 442.629C908.776 445.53 830.136 503.414 730.874 571.912C631.613 640.41 549.33 693.594 547.104 690.693Z" fill="url(#paint6_radial_7_43)"/>
<path style="mix-blend-mode:screen" d="M50.9998 575.691C50.9998 558.645 348.132 544.815 714.684 544.815C1081.24 544.815 1378.34 558.645 1378.34 575.691C1378.34 592.736 1081.21 606.566 714.684 606.566C348.154 606.566 50.9998 592.736 50.9998 575.691Z" fill="url(#paint7_radial_7_43)"/>
<path style="mix-blend-mode:screen" d="M697.571 671.961C701.52 671.961 704.722 615.7 704.722 546.299C704.722 476.897 701.52 420.636 697.571 420.636C693.622 420.636 690.42 476.897 690.42 546.299C690.42 615.7 693.622 671.961 697.571 671.961Z" fill="url(#paint8_radial_7_43)"/>
<path style="mix-blend-mode:screen" d="M697.572 615.426C699.745 615.426 701.507 584.477 701.507 546.299C701.507 508.12 699.745 477.171 697.572 477.171C695.399 477.171 693.637 508.12 693.637 546.299C693.637 584.477 695.399 615.426 697.572 615.426Z" fill="url(#paint9_radial_7_43)"/>
<path style="mix-blend-mode:screen" d="M697.571 581.717C698.689 581.717 699.595 565.86 699.595 546.299C699.595 526.737 698.689 510.88 697.571 510.88C696.453 510.88 695.547 526.737 695.547 546.299C695.547 565.86 696.453 581.717 697.571 581.717Z" fill="url(#paint10_radial_7_43)"/>
<path style="mix-blend-mode:screen" d="M795.099 379.956C798.157 381.215 766.606 460.26 724.644 556.486C682.682 652.711 646.162 729.687 643.103 728.428C640.045 727.168 671.595 648.124 713.558 551.898C755.52 455.673 792.04 378.674 795.099 379.933V379.956Z" fill="url(#paint11_radial_7_43)"/>
<path style="mix-blend-mode:screen" d="M507.862 635.913C507.278 633.147 592.372 612.593 697.93 589.993C803.487 567.393 889.526 551.314 890.111 554.08C890.695 556.846 805.624 577.4 700.066 600C594.508 622.6 508.469 638.679 507.862 635.913Z" fill="url(#paint12_radial_7_43)"/>
<path style="mix-blend-mode:screen" d="M508.473 551.313C509.102 548.57 594.916 565.886 700.136 590.015C805.357 614.144 890.136 635.935 889.507 638.701C888.877 641.445 803.063 624.129 697.865 600C592.645 575.87 507.865 554.079 508.495 551.313H508.473Z" fill="url(#paint13_radial_7_43)"/>
<path style="mix-blend-mode:screen" d="M704.989 581.605C603.681 581.605 521.578 577.85 521.578 573.24C521.578 568.63 603.704 564.874 704.989 564.874C806.274 564.874 888.4 568.63 888.4 573.24C888.4 577.85 806.274 581.605 704.989 581.605Z" fill="url(#paint14_radial_7_43)"/>
<path style="mix-blend-mode:screen" d="M704.987 577.85C760.714 577.85 805.89 575.786 805.89 573.24C805.89 570.694 760.714 568.63 704.987 568.63C649.26 568.63 604.084 570.694 604.084 573.24C604.084 575.786 649.26 577.85 704.987 577.85Z" fill="url(#paint15_radial_7_43)"/>
<path style="mix-blend-mode:screen" d="M704.989 575.6C676.429 575.6 653.289 574.544 653.289 573.239C653.289 571.935 676.429 570.878 704.989 570.878C733.548 570.878 756.688 571.935 756.688 573.239C756.688 574.544 733.548 575.6 704.989 575.6Z" fill="url(#paint16_radial_7_43)"/>
<path style="mix-blend-mode:screen" d="M698.965 364.552C711.58 364.552 721.835 447.847 721.835 550.594C721.835 653.341 711.603 736.636 698.965 736.636C686.327 736.636 676.117 653.341 676.117 550.594C676.117 447.847 686.349 364.552 698.965 364.552Z" fill="url(#paint17_radial_7_43)"/>
<path style="mix-blend-mode:screen" d="M628.444 414.318C636.787 411.282 670.002 473.416 702.609 553.045C735.217 632.697 754.894 699.711 746.551 702.724C738.208 705.76 704.993 643.626 672.386 563.997C639.756 484.345 620.079 417.331 628.422 414.295L628.444 414.318Z" fill="url(#paint18_radial_7_43)"/>
<path style="mix-blend-mode:screen" d="M822.918 389.378C832.206 394.82 793.662 473.483 736.857 565.031C680.053 656.601 626.465 726.404 617.2 720.939C607.935 715.497 646.456 636.857 703.261 545.286C760.065 453.716 813.653 383.914 822.941 389.356L822.918 389.378Z" fill="url(#paint19_radial_7_43)"/>
<path style="mix-blend-mode:screen" d="M899.039 453.851C913.386 474.45 847.902 538.968 752.778 597.954C657.677 656.939 568.94 688.04 554.615 667.441C540.29 646.842 605.752 582.325 700.876 523.339C796 464.353 884.714 433.253 899.061 453.851H899.039Z" fill="url(#paint20_radial_7_43)"/>
<path style="mix-blend-mode:screen" d="M821.616 676.436C810.304 698.834 722.422 671.848 625.342 616.169C528.262 560.489 458.752 497.163 470.086 474.765C481.397 452.367 569.28 479.352 666.36 535.055C763.44 590.757 832.949 654.061 821.638 676.458L821.616 676.436Z" fill="url(#paint21_radial_7_43)"/>
<path style="mix-blend-mode:screen" d="M933.895 627.03C928.925 656.939 819.229 663.64 688.845 642.007C558.483 620.351 456.838 578.546 461.807 548.638C466.777 518.729 576.473 512.027 706.835 533.683C837.197 555.339 938.842 597.121 933.895 627.03Z" fill="url(#paint22_radial_7_43)"/>
<path style="mix-blend-mode:screen" d="M778.749 579.94C583.263 579.94 424.791 576.162 424.791 571.529C424.791 566.897 583.263 563.119 778.749 563.119C974.236 563.119 1132.71 566.897 1132.71 571.529C1132.71 576.162 974.236 579.94 778.749 579.94Z" fill="url(#paint23_radial_7_43)"/>
<path style="mix-blend-mode:screen" d="M778.751 576.163C671.214 576.163 584.029 574.094 584.029 571.53C584.029 568.967 671.214 566.898 778.751 566.898C886.288 566.898 973.474 568.967 973.474 571.53C973.474 574.094 886.288 576.163 778.751 576.163Z" fill="url(#paint24_radial_7_43)"/>
<path style="mix-blend-mode:screen" d="M778.75 573.891C723.655 573.891 678.994 572.834 678.994 571.53C678.994 570.226 723.655 569.169 778.75 569.169C833.845 569.169 878.506 570.226 878.506 571.53C878.506 572.834 833.845 573.891 778.75 573.891Z" fill="url(#paint25_radial_7_43)"/>
<path style="mix-blend-mode:screen" d="M1290.71 573.172C1290.71 588.036 1056.09 600.112 766.653 600.112C477.212 600.112 242.619 588.059 242.619 573.172C242.619 558.285 477.235 546.231 766.653 546.231C1056.07 546.231 1290.71 558.285 1290.71 573.172Z" fill="url(#paint26_radial_7_43)"/>
<path style="mix-blend-mode:screen" d="M763.39 586.879C770.924 555.352 751.474 523.686 719.946 516.151C688.418 508.617 656.752 528.068 649.218 559.595C641.684 591.123 661.134 622.789 692.662 630.323C724.19 637.858 755.856 618.407 763.39 586.879Z" fill="url(#paint27_radial_7_43)"/>
<path style="mix-blend-mode:color-dodge" opacity="0.31" d="M853.165 644.2C853.165 727.428 785.657 794.936 702.384 794.936C619.112 794.936 551.648 727.428 551.648 644.2C551.648 560.973 619.157 493.442 702.384 493.442C785.612 493.442 853.165 560.928 853.165 644.2Z" fill="url(#paint28_radial_7_43)"/>
<circle cx="814.5" cy="371.5" r="5.5" fill="white" fill-opacity="0.16"/>
<circle cx="972.5" cy="516.5" r="5.5" fill="white" fill-opacity="0.1"/>
</g>
<defs>
<filter id="filter0_f_7_43" x="-617.568" y="2.44788" width="2632.59" height="1195.62" filterUnits="userSpaceOnUse" color-interpolation-filters="sRGB">
<feFlood flood-opacity="0" result="BackgroundImageFix"/>
<feBlend mode="normal" in="SourceGraphic" in2="BackgroundImageFix" result="shape"/>
<feGaussianBlur stdDeviation="125" result="effect1_foregroundBlur_7_43"/>
</filter>
<filter id="filter1_f_7_43" x="1192.6" y="303.6" width="65.8" height="65.8" filterUnits="userSpaceOnUse" color-interpolation-filters="sRGB">
<feFlood flood-opacity="0" result="BackgroundImageFix"/>
<feBlend mode="normal" in="SourceGraphic" in2="BackgroundImageFix" result="shape"/>
<feGaussianBlur stdDeviation="5.7" result="effect1_foregroundBlur_7_43"/>
</filter>
<filter id="filter2_f_7_43" x="-56.6" y="455.4" width="117.2" height="117.2" filterUnits="userSpaceOnUse" color-interpolation-filters="sRGB">
<feFlood flood-opacity="0" result="BackgroundImageFix"/>
<feBlend mode="normal" in="SourceGraphic" in2="BackgroundImageFix" result="shape"/>
<feGaussianBlur stdDeviation="7.8" result="effect1_foregroundBlur_7_43"/>
</filter>
<filter id="filter3_f_7_43" x="202.4" y="190.4" width="75.2" height="75.2" filterUnits="userSpaceOnUse" color-interpolation-filters="sRGB">
<feFlood flood-opacity="0" result="BackgroundImageFix"/>
<feBlend mode="normal" in="SourceGraphic" in2="BackgroundImageFix" result="shape"/>
<feGaussianBlur stdDeviation="4.8" result="effect1_foregroundBlur_7_43"/>
</filter>
<filter id="filter4_f_7_43" x="499.4" y="288.4" width="26.2" height="26.2" filterUnits="userSpaceOnUse" color-interpolation-filters="sRGB">
<feFlood flood-opacity="0" result="BackgroundImageFix"/>
<feBlend mode="normal" in="SourceGraphic" in2="BackgroundImageFix" result="shape"/>
<feGaussianBlur stdDeviation="3.3" result="effect1_foregroundBlur_7_43"/>
</filter>
<radialGradient id="paint0_radial_7_43" cx="0" cy="0" r="1" gradientUnits="userSpaceOnUse" gradientTransform="translate(712.063 565.646) scale(127.349)">
<stop stop-color="#FA902C"/>
<stop offset="0.1" stop-color="#F48D2B" stop-opacity="0.98"/>
<stop offset="0.23" stop-color="#E58428" stop-opacity="0.92"/>
<stop offset="0.36" stop-color="#CD7624" stop-opacity="0.82"/>
<stop offset="0.51" stop-color="#AB621E" stop-opacity="0.68"/>
<stop offset="0.66" stop-color="#7E4916" stop-opacity="0.51"/>
<stop offset="0.82" stop-color="#48290C" stop-opacity="0.29"/>
<stop offset="0.98" stop-color="#0A0501" stop-opacity="0.04"/>
<stop offset="1" stop-opacity="0"/>
</radialGradient>
<radialGradient id="paint1_radial_7_43" cx="0" cy="0" r="1" gradientUnits="userSpaceOnUse" gradientTransform="translate(714.684 573.171) scale(205.179)">
<stop stop-color="#FABA2C"/>
<stop offset="0.07" stop-color="#F5B52A" stop-opacity="0.96"/>
<stop offset="0.18" stop-color="#E8A827" stop-opacity="0.83"/>
<stop offset="0.34" stop-color="#D29421" stop-opacity="0.64"/>
<stop offset="0.52" stop-color="#B5781A" stop-opacity="0.37"/>
<stop offset="0.73" stop-color="#905510" stop-opacity="0.03"/>
<stop offset="0.75" stop-color="#8D5210" stop-opacity="0"/>
</radialGradient>
<radialGradient id="paint2_radial_7_43" cx="0" cy="0" r="1" gradientUnits="userSpaceOnUse" gradientTransform="translate(490.475 682.928) rotate(-128.45) scale(181.374 20.1527)">
<stop stop-color="#FFA200"/>
<stop offset="0.01" stop-color="#FF8F00"/>
<stop offset="0.03" stop-color="#FF6900"/>
<stop offset="0.05" stop-color="#F86600"/>
<stop offset="0.21" stop-color="#B74B00"/>
<stop offset="0.36" stop-color="#7F3400"/>
<stop offset="0.51" stop-color="#512100"/>
<stop offset="0.65" stop-color="#2E1300"/>
<stop offset="0.78" stop-color="#140800"/>
<stop offset="0.9" stop-color="#050200"/>
<stop offset="1"/>
</radialGradient>
<radialGradient id="paint3_radial_7_43" cx="0" cy="0" r="1" gradientUnits="userSpaceOnUse" gradientTransform="translate(651.029 551.868) rotate(50.88) scale(165.656 4.73302)">
<stop stop-color="#FFA200"/>
<stop offset="0.01" stop-color="#FF8F00"/>
<stop offset="0.03" stop-color="#FF6900"/>
<stop offset="0.07" stop-color="#D85900"/>
<stop offset="0.13" stop-color="#AB4600"/>
<stop offset="0.19" stop-color="#823500"/>
<stop offset="0.25" stop-color="#5F2700"/>
<stop offset="0.33" stop-color="#411A00"/>
<stop offset="0.4" stop-color="#291100"/>
<stop offset="0.49" stop-color="#160900"/>
<stop offset="0.59" stop-color="#090400"/>
<stop offset="0.73" stop-color="#020000"/>
<stop offset="1"/>
</radialGradient>
<radialGradient id="paint4_radial_7_43" cx="0" cy="0" r="1" gradientUnits="userSpaceOnUse" gradientTransform="translate(907.286 505.168) rotate(-107.91) scale(130.475 3.34552)">
<stop stop-color="#FFA200"/>
<stop offset="0.01" stop-color="#FF8F00"/>
<stop offset="0.03" stop-color="#FF6900"/>
<stop offset="0.07" stop-color="#D85900"/>
<stop offset="0.13" stop-color="#AB4600"/>
<stop offset="0.19" stop-color="#823500"/>
<stop offset="0.25" stop-color="#5F2700"/>
<stop offset="0.33" stop-color="#411A00"/>
<stop offset="0.4" stop-color="#291100"/>
<stop offset="0.49" stop-color="#160900"/>
<stop offset="0.59" stop-color="#090400"/>
<stop offset="0.73" stop-color="#020000"/>
<stop offset="1"/>
</radialGradient>
<radialGradient id="paint5_radial_7_43" cx="0" cy="0" r="1" gradientUnits="userSpaceOnUse" gradientTransform="translate(632.697 784.613) rotate(-155.68) scale(166.804 6.67214)">
<stop stop-color="#FFA200"/>
<stop offset="0.01" stop-color="#FF8F00"/>
<stop offset="0.03" stop-color="#FF6900"/>
<stop offset="0.07" stop-color="#D85900"/>
<stop offset="0.13" stop-color="#AB4600"/>
<stop offset="0.19" stop-color="#823500"/>
<stop offset="0.25" stop-color="#5F2700"/>
<stop offset="0.33" stop-color="#411A00"/>
<stop offset="0.4" stop-color="#291100"/>
<stop offset="0.49" stop-color="#160900"/>
<stop offset="0.59" stop-color="#090400"/>
<stop offset="0.73" stop-color="#020000"/>
<stop offset="1"/>
</radialGradient>
<radialGradient id="paint6_radial_7_43" cx="0" cy="0" r="1" gradientUnits="userSpaceOnUse" gradientTransform="translate(764.932 588.323) rotate(145.39) scale(219.584 5.2282)">
<stop stop-color="#FFA200"/>
<stop offset="0.01" stop-color="#FF8F00"/>
<stop offset="0.03" stop-color="#FF6900"/>
<stop offset="0.07" stop-color="#D85900"/>
<stop offset="0.13" stop-color="#AB4600"/>
<stop offset="0.19" stop-color="#823500"/>
<stop offset="0.25" stop-color="#5F2700"/>
<stop offset="0.33" stop-color="#411A00"/>
<stop offset="0.4" stop-color="#291100"/>
<stop offset="0.49" stop-color="#160900"/>
<stop offset="0.59" stop-color="#090400"/>
<stop offset="0.73" stop-color="#020000"/>
<stop offset="1"/>
</radialGradient>
<radialGradient id="paint7_radial_7_43" cx="0" cy="0" r="1" gradientUnits="userSpaceOnUse" gradientTransform="translate(719.599 569.828) rotate(180) scale(664.343 30.7566)">
<stop stop-color="#FFA200"/>
<stop offset="0.01" stop-color="#FF8F00"/>
<stop offset="0.03" stop-color="#FF6900"/>
<stop offset="0.05" stop-color="#F86600" stop-opacity="0.98"/>
<stop offset="0.21" stop-color="#B74B00" stop-opacity="0.75"/>
<stop offset="0.36" stop-color="#7F3400" stop-opacity="0.55"/>
<stop offset="0.51" stop-color="#512100" stop-opacity="0.39"/>
<stop offset="0.65" stop-color="#2E1300" stop-opacity="0.26"/>
<stop offset="0.78" stop-color="#140800" stop-opacity="0.17"/>
<stop offset="0.9" stop-color="#050200" stop-opacity="0.12"/>
<stop offset="1" stop-opacity="0.1"/>
</radialGradient>
<radialGradient id="paint8_radial_7_43" cx="0" cy="0" r="1" gradientUnits="userSpaceOnUse" gradientTransform="translate(697.571 548.653) scale(7.28608 120.584)">
<stop stop-color="#BD1B04"/>
<stop offset="0.48" stop-color="#650E02"/>
<stop offset="1"/>
</radialGradient>
<radialGradient id="paint9_radial_7_43" cx="0" cy="0" r="1" gradientUnits="userSpaceOnUse" gradientTransform="translate(697.572 545.969) scale(3.48562 67.7604)">
<stop stop-color="#F2BA0A"/>
<stop offset="0.25" stop-color="#A78006"/>
<stop offset="0.52" stop-color="#604A03"/>
<stop offset="0.74" stop-color="#2C2201"/>
<stop offset="0.91" stop-color="#0C0900"/>
<stop offset="1"/>
</radialGradient>
<radialGradient id="paint10_radial_7_43" cx="0" cy="0" r="1" gradientUnits="userSpaceOnUse" gradientTransform="translate(697.571 547.405) scale(2.11388 34.4559)">
<stop stop-color="white"/>
<stop offset="0.12" stop-color="#C7C7C7"/>
<stop offset="0.24" stop-color="#939393"/>
<stop offset="0.37" stop-color="#666666"/>
<stop offset="0.5" stop-color="#414141"/>
<stop offset="0.63" stop-color="#242424"/>
<stop offset="0.75" stop-color="#101010"/>
<stop offset="0.88" stop-color="#040404"/>
<stop offset="1"/>
</radialGradient>
<radialGradient id="paint11_radial_7_43" cx="0" cy="0" r="1" gradientUnits="userSpaceOnUse" gradientTransform="translate(959.125 615.587) rotate(-66.44) scale(189.249 4.73122)">
<stop stop-color="#FFA200"/>
<stop offset="0.01" stop-color="#FF8F00"/>
<stop offset="0.03" stop-color="#FF6900"/>
<stop offset="0.07" stop-color="#D85900"/>
<stop offset="0.13" stop-color="#AB4600"/>
<stop offset="0.19" stop-color="#823500"/>
<stop offset="0.25" stop-color="#5F2700"/>
<stop offset="0.33" stop-color="#411A00"/>
<stop offset="0.4" stop-color="#291100"/>
<stop offset="0.49" stop-color="#160900"/>
<stop offset="0.59" stop-color="#090400"/>
<stop offset="0.73" stop-color="#020000"/>
<stop offset="1"/>
</radialGradient>
<radialGradient id="paint12_radial_7_43" cx="0" cy="0" r="1" gradientUnits="userSpaceOnUse" gradientTransform="translate(731.993 648.3) rotate(167.92) scale(196.934 6.67574)">
<stop stop-color="#FFA200"/>
<stop offset="0.01" stop-color="#FF8F00"/>
<stop offset="0.03" stop-color="#FF6900"/>
<stop offset="0.07" stop-color="#D85900"/>
<stop offset="0.13" stop-color="#AB4600"/>
<stop offset="0.19" stop-color="#823500"/>
<stop offset="0.25" stop-color="#5F2700"/>
<stop offset="0.33" stop-color="#411A00"/>
<stop offset="0.4" stop-color="#291100"/>
<stop offset="0.49" stop-color="#160900"/>
<stop offset="0.59" stop-color="#090400"/>
<stop offset="0.73" stop-color="#020000"/>
<stop offset="1"/>
</radialGradient>
<radialGradient id="paint13_radial_7_43" cx="0" cy="0" r="1" gradientUnits="userSpaceOnUse" gradientTransform="translate(683.395 753.058) rotate(-167.08) scale(197.293 6.68788)">
<stop stop-color="#FFA200"/>
<stop offset="0.01" stop-color="#FF8F00"/>
<stop offset="0.03" stop-color="#FF6900"/>
<stop offset="0.07" stop-color="#D85900"/>
<stop offset="0.13" stop-color="#AB4600"/>
<stop offset="0.19" stop-color="#823500"/>
<stop offset="0.25" stop-color="#5F2700"/>
<stop offset="0.33" stop-color="#411A00"/>
<stop offset="0.4" stop-color="#291100"/>
<stop offset="0.49" stop-color="#160900"/>
<stop offset="0.59" stop-color="#090400"/>
<stop offset="0.73" stop-color="#020000"/>
<stop offset="1"/>
</radialGradient>
<radialGradient id="paint14_radial_7_43" cx="0" cy="0" r="1" gradientUnits="userSpaceOnUse" gradientTransform="translate(707.847 573.24) rotate(90) scale(8.54538 176.206)">
<stop stop-color="#BD1B04"/>
<stop offset="0.48" stop-color="#650E02"/>
<stop offset="1"/>
</radialGradient>
<radialGradient id="paint15_radial_7_43" cx="0" cy="0" r="1" gradientUnits="userSpaceOnUse" gradientTransform="translate(706.385 573.24) rotate(90) scale(4.07029 98.6234)">
<stop stop-color="#F2BA0A"/>
<stop offset="0.25" stop-color="#A78006"/>
<stop offset="0.52" stop-color="#604A03"/>
<stop offset="0.74" stop-color="#2C2201"/>
<stop offset="0.91" stop-color="#0C0900"/>
<stop offset="1"/>
</radialGradient>
<radialGradient id="paint16_radial_7_43" cx="0" cy="0" r="1" gradientUnits="userSpaceOnUse" gradientTransform="translate(708.779 573.239) rotate(90) scale(2.47365 50.2401)">
<stop stop-color="white"/>
<stop offset="0.12" stop-color="#C7C7C7"/>
<stop offset="0.24" stop-color="#939393"/>
<stop offset="0.37" stop-color="#666666"/>
<stop offset="0.5" stop-color="#414141"/>
<stop offset="0.63" stop-color="#242424"/>
<stop offset="0.75" stop-color="#101010"/>
<stop offset="0.88" stop-color="#040404"/>
<stop offset="1"/>
</radialGradient>
<radialGradient id="paint17_radial_7_43" cx="0" cy="0" r="1" gradientUnits="userSpaceOnUse" gradientTransform="translate(708.333 558.008) rotate(-90) scale(186.715 22.7701)">
<stop stop-color="#FFA200"/>
<stop offset="0.01" stop-color="#FF8F00"/>
<stop offset="0.03" stop-color="#FF6900"/>
<stop offset="0.05" stop-color="#F86600"/>
<stop offset="0.21" stop-color="#B74B00"/>
<stop offset="0.36" stop-color="#7F3400"/>
<stop offset="0.51" stop-color="#512100"/>
<stop offset="0.65" stop-color="#2E1300"/>
<stop offset="0.78" stop-color="#140800"/>
<stop offset="0.9" stop-color="#050200"/>
<stop offset="1"/>
</radialGradient>
<radialGradient id="paint18_radial_7_43" cx="0" cy="0" r="1" gradientUnits="userSpaceOnUse" gradientTransform="translate(803.5 611.878) rotate(-112.27) scale(157.174 15.334)">
<stop stop-color="#FFA200"/>
<stop offset="0.01" stop-color="#FF8F00"/>
<stop offset="0.03" stop-color="#FF6900"/>
<stop offset="0.05" stop-color="#F86600"/>
<stop offset="0.21" stop-color="#B74B00"/>
<stop offset="0.36" stop-color="#7F3400"/>
<stop offset="0.51" stop-color="#512100"/>
<stop offset="0.65" stop-color="#2E1300"/>
<stop offset="0.78" stop-color="#140800"/>
<stop offset="0.9" stop-color="#050200"/>
<stop offset="1"/>
</radialGradient>
<radialGradient id="paint19_radial_7_43" cx="0" cy="0" r="1" gradientUnits="userSpaceOnUse" gradientTransform="translate(790.621 574.841) rotate(-58.18) scale(197.464 18.8061)">
<stop stop-color="#FFA200"/>
<stop offset="0.01" stop-color="#FF8F00"/>
<stop offset="0.03" stop-color="#FF6900"/>
<stop offset="0.05" stop-color="#F86600"/>
<stop offset="0.21" stop-color="#B74B00"/>
<stop offset="0.36" stop-color="#7F3400"/>
<stop offset="0.51" stop-color="#512100"/>
<stop offset="0.65" stop-color="#2E1300"/>
<stop offset="0.78" stop-color="#140800"/>
<stop offset="0.9" stop-color="#050200"/>
<stop offset="1"/>
</radialGradient>
<radialGradient id="paint20_radial_7_43" cx="0" cy="0" r="1" gradientUnits="userSpaceOnUse" gradientTransform="translate(827.996 345.658) rotate(-31.81) scale(202.06 46.9906)">
<stop stop-color="#FFA200"/>
<stop offset="0.01" stop-color="#FF8F00"/>
<stop offset="0.03" stop-color="#FF6900"/>
<stop offset="0.05" stop-color="#F86600"/>
<stop offset="0.21" stop-color="#B74B00"/>
<stop offset="0.36" stop-color="#7F3400"/>
<stop offset="0.51" stop-color="#512100"/>
<stop offset="0.65" stop-color="#2E1300"/>
<stop offset="0.78" stop-color="#140800"/>
<stop offset="0.9" stop-color="#050200"/>
<stop offset="1"/>
</radialGradient>
<radialGradient id="paint21_radial_7_43" cx="0" cy="0" r="1" gradientUnits="userSpaceOnUse" gradientTransform="translate(849.756 566.786) rotate(29.84) scale(202.079 46.9951)">
<stop stop-color="#FFA200"/>
<stop offset="0.01" stop-color="#FF8F00"/>
<stop offset="0.03" stop-color="#FF6900"/>
<stop offset="0.05" stop-color="#F86600"/>
<stop offset="0.21" stop-color="#B74B00"/>
<stop offset="0.36" stop-color="#7F3400"/>
<stop offset="0.51" stop-color="#512100"/>
<stop offset="0.65" stop-color="#2E1300"/>
<stop offset="0.78" stop-color="#140800"/>
<stop offset="0.9" stop-color="#050200"/>
<stop offset="1"/>
</radialGradient>
<radialGradient id="paint22_radial_7_43" cx="0" cy="0" r="1" gradientUnits="userSpaceOnUse" gradientTransform="translate(710.255 487.955) rotate(9.43) scale(239.629 56.3833)">
<stop stop-color="#FFA200"/>
<stop offset="0.01" stop-color="#FF8F00"/>
<stop offset="0.03" stop-color="#FF6900"/>
<stop offset="0.05" stop-color="#F86600"/>
<stop offset="0.21" stop-color="#B74B00"/>
<stop offset="0.36" stop-color="#7F3400"/>
<stop offset="0.51" stop-color="#512100"/>
<stop offset="0.65" stop-color="#2E1300"/>
<stop offset="0.78" stop-color="#140800"/>
<stop offset="0.9" stop-color="#050200"/>
<stop offset="1"/>
</radialGradient>
<radialGradient id="paint23_radial_7_43" cx="0" cy="0" r="1" gradientUnits="userSpaceOnUse" gradientTransform="translate(778.772 571.507) rotate(90) scale(8.59037 339.835)">
<stop stop-color="#BD1B04"/>
<stop offset="0.48" stop-color="#650E02"/>
<stop offset="1"/>
</radialGradient>
<radialGradient id="paint24_radial_7_43" cx="0" cy="0" r="1" gradientUnits="userSpaceOnUse" gradientTransform="translate(779.898 571.508) rotate(90) scale(4.11527 191.278)">
<stop stop-color="#F2BA0A"/>
<stop offset="0.25" stop-color="#A78006"/>
<stop offset="0.52" stop-color="#604A03"/>
<stop offset="0.74" stop-color="#2C2201"/>
<stop offset="0.91" stop-color="#0C0900"/>
<stop offset="1"/>
</radialGradient>
<radialGradient id="paint25_radial_7_43" cx="0" cy="0" r="1" gradientUnits="userSpaceOnUse" gradientTransform="translate(776.574 571.508) rotate(90) scale(2.47367 96.3986)">
<stop stop-color="white"/>
<stop offset="0.12" stop-color="#C7C7C7"/>
<stop offset="0.24" stop-color="#939393"/>
<stop offset="0.37" stop-color="#666666"/>
<stop offset="0.5" stop-color="#414141"/>
<stop offset="0.63" stop-color="#242424"/>
<stop offset="0.75" stop-color="#101010"/>
<stop offset="0.88" stop-color="#040404"/>
<stop offset="1"/>
</radialGradient>
<radialGradient id="paint26_radial_7_43" cx="0" cy="0" r="1" gradientUnits="userSpaceOnUse" gradientTransform="translate(741.657 581.556) scale(525.807 26.8269)">
<stop stop-color="#FFA200"/>
<stop offset="0.01" stop-color="#FF8F00"/>
<stop offset="0.03" stop-color="#FF6900"/>
<stop offset="0.05" stop-color="#F86600"/>
<stop offset="0.21" stop-color="#B74B00"/>
<stop offset="0.36" stop-color="#7F3400"/>
<stop offset="0.51" stop-color="#512100"/>
<stop offset="0.65" stop-color="#2E1300"/>
<stop offset="0.78" stop-color="#140800"/>
<stop offset="0.9" stop-color="#050200"/>
<stop offset="1"/>
</radialGradient>
<radialGradient id="paint27_radial_7_43" cx="0" cy="0" r="1" gradientUnits="userSpaceOnUse" gradientTransform="translate(706.317 573.181) scale(58.6933 58.6933)">
<stop stop-color="white"/>
<stop offset="0.1" stop-color="#F9F9F9" stop-opacity="0.98"/>
<stop offset="0.23" stop-color="#EAEAEA" stop-opacity="0.92"/>
<stop offset="0.36" stop-color="#D2D2D2" stop-opacity="0.83"/>
<stop offset="0.5" stop-color="#B0B0B0" stop-opacity="0.69"/>
<stop offset="0.65" stop-color="#838383" stop-opacity="0.52"/>
<stop offset="0.81" stop-color="#4D4D4D" stop-opacity="0.3"/>
<stop offset="0.96" stop-color="#0F0F0F" stop-opacity="0.06"/>
<stop offset="1" stop-opacity="0"/>
</radialGradient>
<radialGradient id="paint28_radial_7_43" cx="0" cy="0" r="1" gradientUnits="userSpaceOnUse" gradientTransform="translate(702.407 644.178) scale(150.758 150.759)">
<stop/>
<stop offset="0.7" stop-color="#0C0301"/>
<stop offset="0.72" stop-color="#110501"/>
<stop offset="0.73" stop-color="#220D02"/>
<stop offset="0.76" stop-color="#451D03"/>
<stop offset="0.78" stop-color="#2C1302"/>
<stop offset="0.81" stop-color="#180A01"/>
<stop offset="0.84" stop-color="#0A0400"/>
<stop offset="0.87" stop-color="#020100"/>
<stop offset="0.94"/>
</radialGradient>
<clipPath id="clip0_7_43">
<rect width="1440" height="6327" fill="white"/>
</clipPath>
<clipPath id="clip1_7_43">
<rect width="1439" height="392" fill="white" transform="translate(1 165)"/>
</clipPath>
<clipPath id="clip2_7_43">
<rect width="598.907" height="182" fill="white" transform="translate(465.535 464.442)"/>
</clipPath>
</defs>
</svg>
