<svg width="22" height="22" viewBox="0 0 22 22" fill="none" xmlns="http://www.w3.org/2000/svg">
<path d="M11.002 3H10.998C6.587 3 3 6.588 3 11C3 12.75 3.564 14.372 4.523 15.689L3.526 18.661L6.601 17.678C7.866 18.516 9.375 19 11.002 19C15.413 19 19 15.411 19 11C19 6.589 15.413 3 11.002 3ZM15.657 14.297C15.464 14.842 14.698 15.294 14.087 15.426C13.669 15.515 13.123 15.586 11.285 14.824C8.934 13.85 7.42 11.461 7.302 11.306C7.189 11.151 6.352 10.041 6.352 8.893C6.352 7.745 6.935 7.186 7.17 6.946C7.363 6.749 7.682 6.659 7.988 6.659C8.087 6.659 8.176 6.664 8.256 6.668C8.491 6.678 8.609 6.692 8.764 7.063C8.957 7.528 9.427 8.676 9.483 8.794C9.54 8.912 9.597 9.072 9.517 9.227C9.442 9.387 9.376 9.458 9.258 9.594C9.14 9.73 9.028 9.834 8.91 9.98C8.802 10.107 8.68 10.243 8.816 10.478C8.952 10.708 9.422 11.475 10.114 12.091C11.007 12.886 11.731 13.14 11.99 13.248C12.183 13.328 12.413 13.309 12.554 13.159C12.733 12.966 12.954 12.646 13.179 12.331C13.339 12.105 13.541 12.077 13.753 12.157C13.969 12.232 15.112 12.797 15.347 12.914C15.582 13.032 15.737 13.088 15.794 13.187C15.85 13.286 15.85 13.751 15.657 14.297Z" fill="black"/>
</svg>
