<svg width="34" height="34" viewBox="0 0 34 34" fill="none" xmlns="http://www.w3.org/2000/svg">
<path d="M26.936 7.81213H26.376L21.644 3.08013C21.266 2.70213 20.65 2.70213 20.258 3.08013C19.88 3.45813 19.88 4.07413 20.258 4.46613L23.604 7.81213H9.99605L13.342 4.46613C13.72 4.08813 13.72 3.47213 13.342 3.08013C12.964 2.70213 12.348 2.70213 11.956 3.08013L7.23805 7.81213H6.67805C5.41805 7.81213 2.80005 7.81213 2.80005 11.3961C2.80005 12.7541 3.08005 13.6501 3.66805 14.2381C4.00405 14.5881 4.41005 14.7701 4.84405 14.8681C5.25005 14.9661 5.68405 14.9801 6.10405 14.9801H27.496C27.93 14.9801 28.336 14.9521 28.728 14.8681C29.904 14.5881 30.8 13.7481 30.8 11.3961C30.8 7.81213 28.182 7.81213 26.936 7.81213Z" fill="#768E91"/>
<path d="M26.67 16.8H6.81805C5.95005 16.8 5.29205 17.57 5.43205 18.424L6.60805 25.62C7.00005 28.028 8.05005 30.8 12.712 30.8H20.566C25.284 30.8 26.124 28.434 26.628 25.788L28.042 18.466C28.21 17.598 27.552 16.8 26.67 16.8ZM14.854 25.83C14.854 26.376 14.42 26.81 13.888 26.81C13.342 26.81 12.908 26.376 12.908 25.83V21.21C12.908 20.678 13.342 20.23 13.888 20.23C14.42 20.23 14.854 20.678 14.854 21.21V25.83ZM20.846 25.83C20.846 26.376 20.412 26.81 19.866 26.81C19.334 26.81 18.886 26.376 18.886 25.83V21.21C18.886 20.678 19.334 20.23 19.866 20.23C20.412 20.23 20.846 20.678 20.846 21.21V25.83Z" fill="#768E91"/>
</svg>
