<svg width="62" height="62" viewBox="0 0 62 62" fill="none" xmlns="http://www.w3.org/2000/svg">
<circle cx="30.8" cy="30.8" r="30.8" fill="#2E2E2E"/>
<path d="M40.9358 21.8121H40.3758L35.6438 17.0801C35.2658 16.7021 34.6498 16.7021 34.2578 17.0801C33.8798 17.4581 33.8798 18.0741 34.2578 18.4661L37.6038 21.8121H23.9958L27.3418 18.4661C27.7198 18.0881 27.7198 17.4721 27.3418 17.0801C26.9638 16.7021 26.3478 16.7021 25.9558 17.0801L21.2378 21.8121H20.6778C19.4178 21.8121 16.7998 21.8121 16.7998 25.3961C16.7998 26.7541 17.0798 27.6501 17.6678 28.2381C18.0038 28.5881 18.4098 28.7701 18.8438 28.8681C19.2498 28.9661 19.6838 28.9801 20.1038 28.9801H41.4958C41.9298 28.9801 42.3358 28.9521 42.7278 28.8681C43.9038 28.5881 44.7998 27.7481 44.7998 25.3961C44.7998 21.8121 42.1818 21.8121 40.9358 21.8121Z" fill="#768E91"/>
<path d="M40.6704 30.8H20.8184C19.9504 30.8 19.2924 31.57 19.4324 32.424L20.6084 39.62C21.0004 42.028 22.0504 44.8 26.7124 44.8H34.5664C39.2844 44.8 40.1244 42.434 40.6284 39.788L42.0424 32.466C42.2104 31.598 41.5524 30.8 40.6704 30.8ZM28.8544 39.83C28.8544 40.376 28.4204 40.81 27.8884 40.81C27.3424 40.81 26.9084 40.376 26.9084 39.83V35.21C26.9084 34.678 27.3424 34.23 27.8884 34.23C28.4204 34.23 28.8544 34.678 28.8544 35.21V39.83ZM34.8464 39.83C34.8464 40.376 34.4124 40.81 33.8664 40.81C33.3344 40.81 32.8864 40.376 32.8864 39.83V35.21C32.8864 34.678 33.3344 34.23 33.8664 34.23C34.4124 34.23 34.8464 34.678 34.8464 35.21V39.83Z" fill="#768E91"/>
</svg>
