<svg width="46" height="46" viewBox="0 0 46 46" fill="none" xmlns="http://www.w3.org/2000/svg">
<circle cx="23" cy="23" r="23" fill="white"/>
<path d="M23.002 16H22.998C18.587 16 15 19.588 15 24C15 25.75 15.564 27.372 16.523 28.689L15.526 31.661L18.601 30.678C19.866 31.516 21.375 32 23.002 32C27.413 32 31 28.411 31 24C31 19.589 27.413 16 23.002 16ZM27.657 27.297C27.464 27.842 26.698 28.294 26.087 28.426C25.669 28.515 25.123 28.586 23.285 27.824C20.934 26.85 19.42 24.461 19.302 24.306C19.189 24.151 18.352 23.041 18.352 21.893C18.352 20.745 18.935 20.186 19.17 19.946C19.363 19.749 19.682 19.659 19.988 19.659C20.087 19.659 20.176 19.664 20.256 19.668C20.491 19.678 20.609 19.692 20.764 20.063C20.957 20.528 21.427 21.676 21.483 21.794C21.54 21.912 21.597 22.072 21.517 22.227C21.442 22.387 21.376 22.458 21.258 22.594C21.14 22.73 21.028 22.834 20.91 22.98C20.802 23.107 20.68 23.243 20.816 23.478C20.952 23.708 21.422 24.475 22.114 25.091C23.007 25.886 23.731 26.14 23.99 26.248C24.183 26.328 24.413 26.309 24.554 26.159C24.733 25.966 24.954 25.646 25.179 25.331C25.339 25.105 25.541 25.077 25.753 25.157C25.969 25.232 27.112 25.797 27.347 25.914C27.582 26.032 27.737 26.088 27.794 26.187C27.85 26.286 27.85 26.751 27.657 27.297Z" fill="black"/>
</svg>
